<svg width="450" height="762" viewBox="0 0 450 762" fill="none" xmlns="http://www.w3.org/2000/svg">
<g clip-path="url(#clip0_62_7)">
<path d="M11.0911 760.291C11.0911 760.291 73.9438 662.979 109.872 659.441C137.832 656.69 135.573 684.596 135.573 684.596C110.548 684.861 58.496 717.193 45.7525 760.291H11.0911Z" fill="#012464"/>
<path d="M201.344 80.9251C201.344 80.9251 187.591 91.6227 187.257 92.8445C186.761 94.6474 187.18 97.0484 187.206 98.9367C187.18 99.0991 187.189 99.2699 187.257 99.4408C189.243 104.268 191.237 109.087 193.222 113.915C193.214 125.031 191.759 151.69 189.286 185.543L189.209 185.731L189.268 185.757C182.73 275.029 169.062 414.038 155.805 449.711L139.955 457.016V462.912L139.818 462.98L148.077 475.592L143.413 490.75L139.861 500.96L105.482 593.522L77.9155 600.921L78.8055 604.22L81.005 603.63L80.3632 618.181L76.8542 618.976L80.2091 635.287L0 760.292H12.9745L45.2738 714.144C78.8398 674.181 108.007 654.298 123.301 660.955C132.8 665.09 136.292 679.564 133.399 702.814L120.117 762.001H147.623L139.75 740.811L140.28 740.187H150.97V737.624H142.454L156.37 721.193L155.386 720.364L156.533 719.791L148.137 702.865L160.11 701.566L159.836 699.02L150.345 700.045L164.732 683.751L163.765 682.905L163.593 681.632L152.236 683.161L155.617 667.713L155.685 667.628L155.891 667.594L163.208 680.846L165.459 679.607L158.578 667.141L167.821 665.603L167.402 663.074L158.193 664.603L171.998 648.01L170.928 647.121L171.45 647.036L171.031 644.507L148.505 648.24L150.028 641.576L173.829 636.799L173.324 634.287L171.185 634.715L174.086 631.058L174.428 631.015L174.385 630.673L174.959 629.947L174.231 629.374L173.855 626.076V626.051L176.063 623.573L175.233 622.838L175.558 622.077L173.983 621.411L173.461 622.633L173.264 620.881L177.278 616.498L176.063 615.387L177.783 614.994V597.076L177.817 597.136L180.025 595.82L172.845 583.807L177.141 577.826L180.513 576.92L179.769 574.16L185.323 566.428L184.775 566.035L186.478 565.556L185.777 563.087L175.027 566.12L176.79 554.243L183.825 563.608L185.879 562.07L178.177 551.817L189.234 535.89L188.182 535.164L187.865 533.925L179.495 536.035L181.215 524.415L181.455 524.09L187.48 532.857L189.594 531.404L183.072 521.903L193.265 508.112L192.23 507.352L191.887 506.113L183.586 508.402L184.51 502.182L181.968 501.806L180.881 509.146L174.009 511.043L174.651 506.933L176.559 505.651L175.173 503.583L177.458 488.878L196.004 481.539L196.286 466.595L195.576 466.911L193.445 462.485L197.117 454.786L197.382 454.667L198.854 435.792L197.51 436.407L197.955 430.255L193.941 432.109L192.726 430.281L199.119 416.183L198.606 415.952L200.086 415.217L199.076 413.192L200.155 412.449L194.6 404.468L201.747 389.054L200.583 388.516L199.975 387.388L190.013 392.685L194.617 381.458L199.094 387.772L201.19 386.294L195.773 378.655L201.233 365.343L202.483 364.685L201.302 362.447L202.423 361.686L196.997 353.672L202.962 339.505L203.706 339.035L203.03 337.95L204.04 337.155L197.955 329.465L203.116 317.571L204.905 316.358L204.656 315.991L205.256 315.649L203.989 313.419L203.21 313.863L198.46 306.882L203.689 294.484L205.692 293.143L204.81 291.827L204.888 291.63L206.077 290.776L204.571 288.7L203.313 289.605L199.462 283.872L205.221 270.047L206.36 269.227L200.814 261.546L205.795 248.891L206.967 248.097L205.521 245.978L204.879 246.413L201.233 241.381L205.461 229.461L207.25 228.06L206.753 227.428L206.984 227.265L205.495 225.181L205.17 225.411L201.892 221.242L205.992 210.296L207.506 209.04L202.825 203.409L207.446 191.456L207.284 191.396L207.96 190.866L206.385 188.841L206.197 188.986L203.441 185.842L207.446 175.64L207.233 175.555L207.344 175.461L207.13 175.196L208.123 174.316L203.843 169.514L206.942 160.533L208.123 159.551L207.395 158.679L207.866 158.209L204.306 154.698L207.446 146.606L207.181 146.504L208.054 145.692L207.874 145.495L208.114 145.273L204.545 141.402L206.959 133.721L208.131 132.73L206.745 131.098L207.455 130.414L205.213 128.09L207.061 122.818L206.539 122.639L208.824 120.682L207.155 118.734L203.193 122.126L204.46 118.597L205.675 119.7L207.395 117.794L205.392 115.991L207.464 110.215L206.976 110.044L208.148 109.036L206.471 107.097L201.789 111.147C201.807 110.566 201.824 110.062 201.832 109.643C203.92 108.028 206.017 106.413 208.105 104.798C208.2 104.738 208.277 104.67 208.354 104.585C208.739 104.2 208.739 103.73 208.508 103.346C207.832 101.338 207.164 99.3298 206.488 97.3304L206.582 97.2705L206.36 96.9459C205.572 94.5961 207.31 82.5912 207.31 82.5912C207.31 82.5912 201.567 80.72 201.336 80.9336L201.344 80.9251ZM201.575 90.6999C202.2 92.5626 202.825 94.4338 203.45 96.2965L191.964 104.183C191.322 102.628 190.681 101.064 190.039 99.5092C193.881 96.5699 197.724 93.6306 201.567 90.6913L201.575 90.6999ZM198.785 125.1C198.785 125.373 198.768 125.647 198.76 125.92L197.502 126.997L198.255 124.553L198.785 125.1ZM196.689 161.456L197.604 158.696C197.562 159.893 197.51 161.106 197.467 162.328L196.689 161.456ZM196.903 165.549L194.729 167.36L195.756 164.267L196.903 165.549ZM195.251 157.637L194.72 159.243L194.181 158.637L195.251 157.637ZM194.66 154.672L196.458 150.528L197.741 151.801L194.66 154.681V154.672ZM197.544 147.999L198.032 146.879C198.015 147.392 197.998 147.905 197.981 148.426L197.553 147.999H197.544ZM194.566 144.197L197.45 141.761L195.585 146.068L194.523 145.017C194.54 144.743 194.558 144.47 194.566 144.197ZM196.937 138.831L197.425 137.429L197.938 137.985L196.937 138.831ZM198.375 134.678L198.46 134.422C198.46 134.533 198.46 134.652 198.452 134.763L198.375 134.678ZM197.014 130.765L196.398 132.533L195.756 131.833L197.014 130.756V130.765ZM195.516 124.664C195.55 123.673 195.585 122.724 195.619 121.819L196.209 122.434L195.516 124.673V124.664ZM195.439 135.285L194.968 136.643C195.003 136.045 195.028 135.456 195.062 134.866L195.448 135.276L195.439 135.285ZM194.481 148.588L194.275 149.067C194.292 148.853 194.301 148.631 194.318 148.417L194.489 148.588H194.481ZM193.479 161.721L193.762 162.037L193.385 163.174C193.419 162.687 193.445 162.2 193.479 161.713V161.721ZM192.769 172.291L196.004 169.599L193.796 174.811L192.675 173.538C192.7 173.119 192.735 172.709 192.76 172.291H192.769ZM196.997 173.837C196.937 175.298 196.877 176.768 196.817 178.255L195.679 176.947L196.997 173.829V173.837ZM183.303 437.005L180.642 433.536L183.877 427.794L183.432 436.945L183.303 437.005ZM188.216 303.653L184.091 312.436L181.737 308.318L188.216 303.644V303.653ZM183.577 303.832L187.137 294.783L190.099 299.132L183.577 303.832ZM189.525 306.891C189.183 310.779 188.764 315.102 188.276 319.767L185.648 315.162L189.525 306.891ZM187.146 322.963L180.102 326.962L184.305 317.999L187.137 322.963H187.146ZM178.382 330.892L186.23 326.432L181.429 336.942L178.442 331.345L178.322 331.405C178.339 331.234 178.365 331.063 178.382 330.892ZM187.069 330.79C186.564 335.173 186.016 339.753 185.434 344.444L182.952 339.795L187.069 330.79ZM184.433 348.024L177.09 352.604L181.609 342.726L184.433 348.024ZM183.218 351.809L178.185 362.113L175.763 356.466L183.218 351.809ZM183.911 356.235C183.278 361.045 182.602 365.916 181.908 370.786L179.52 365.215L183.911 356.226V356.235ZM180.257 373.435L173.872 376.784L178.031 368.265L180.248 373.435H180.257ZM177.929 396.958L177.775 397.41L175.412 391.395L180.565 380.065C179.709 385.79 178.827 391.455 177.929 396.958ZM177.073 416.917C177.732 413.423 178.391 409.783 179.05 406.023L180.188 409.518L177.081 416.917H177.073ZM181.395 413.26L183.74 420.489L176.927 423.881L181.386 413.26H181.395ZM180.068 400.862L184.904 398.291L181.703 405.904L180.068 400.862ZM176.063 400.085L169.986 403.315L173.923 394.651L176.054 400.085H176.063ZM173.923 419.549L171.69 415.969L176.268 406.775C175.49 411.227 174.711 415.499 173.923 419.549ZM173.196 423.223C173.008 424.172 172.811 425.111 172.622 426.026L164.706 429.973L170.346 418.66L173.196 423.223ZM183.312 423.565L178.947 431.323L175.849 427.282L183.312 423.565ZM182.918 409.638L184.998 404.69L184.519 414.576L182.918 409.646V409.638ZM180.445 397.752C180.47 397.607 180.496 397.453 180.513 397.308L183.774 387.61L185.357 395.138L180.436 397.752H180.445ZM183.868 375.562C183.928 375.152 183.988 374.742 184.048 374.34L185.862 373.392L184.356 377.869L183.877 375.571L183.868 375.562ZM184.493 371.205C185.546 363.788 186.547 356.363 187.463 349.16L187.702 349.015L186.684 370.068L184.501 371.213L184.493 371.205ZM188.267 291.887L191.28 284.231C191.014 287.973 190.741 291.605 190.467 295.117L188.267 291.887ZM190.107 280.19L186.521 289.315L183.457 284.812L190.107 280.19ZM184.527 280.95L188.301 271.867L191.263 276.268L184.527 280.95ZM189.482 269.022L192.777 261.084C192.538 265.066 192.298 268.996 192.05 272.841L189.482 269.022ZM187.428 258.265L190.133 251.113L192.7 254.676L187.428 258.265ZM185.383 262.759L190.852 259.042L187.762 266.467L185.366 262.904C185.366 262.853 185.374 262.81 185.383 262.767V262.759ZM191.22 248.233L193.907 241.124C193.727 244.499 193.539 247.857 193.351 251.19L191.22 248.233ZM192.153 228.812L194.883 221.968C194.72 225.275 194.558 228.59 194.386 231.896L192.153 228.812ZM192.854 234.161L188.9 236.98L191.032 231.64L192.854 234.161ZM193.325 210.33L195.679 204.751C195.559 207.442 195.431 210.142 195.311 212.859L193.325 210.33ZM194.035 215.38L189.833 218.593L192.187 213.03L194.035 215.38ZM194.301 201.418L191.511 208.023L190.227 206.391C190.278 205.742 190.33 205.101 190.381 204.46L194.301 201.418ZM192.444 199.607L193.573 196.292L194.806 197.779L192.444 199.607ZM194.54 193.447L196.406 187.978C196.303 190.405 196.201 192.848 196.09 195.309L194.54 193.447ZM192.615 191.131L191.494 189.781C191.536 189.217 191.579 188.645 191.622 188.081L194.429 185.825L192.623 191.131H192.615ZM196.021 181.245L192.717 183.902L194.549 179.562L196.021 181.237V181.245ZM191.648 193.976L191.049 195.745C191.109 194.985 191.168 194.224 191.22 193.464L191.648 193.976ZM190.364 210.715L189.756 212.15C189.808 211.484 189.859 210.817 189.919 210.151L190.364 210.715ZM188.909 222.515L193.188 219.242L190.355 226.351L188.772 224.164C188.815 223.617 188.866 223.062 188.909 222.515ZM189.234 229.171L188.113 231.982C188.224 230.683 188.336 229.376 188.447 228.086L189.234 229.171ZM187.317 241.244L192.504 237.544L189.405 245.73L187.189 242.654C187.232 242.184 187.274 241.714 187.317 241.244ZM188.327 248.609L186.145 254.368C186.384 251.754 186.615 249.156 186.846 246.559L188.327 248.609ZM186.581 269.295L184.228 274.969C184.484 272.286 184.741 269.603 184.989 266.929L186.581 269.295ZM185.383 292.194L181.523 302.021C181.985 297.535 182.447 293.04 182.901 288.537L185.392 292.194H185.383ZM182.756 315.264L179.315 322.604C179.726 318.887 180.137 315.145 180.539 311.385L182.756 315.273V315.264ZM177.834 335.643L180.085 339.864L176.362 348.007C176.859 343.939 177.347 339.812 177.826 335.643H177.834ZM176.705 365.138L173.281 372.136C173.786 368.385 174.291 364.566 174.788 360.678L176.705 365.138ZM172.117 380.595L179.187 376.878L174.103 388.054L171.869 382.364C171.955 381.774 172.04 381.185 172.117 380.595ZM172.622 391.31L169.507 398.145C170.046 394.693 170.586 391.139 171.125 387.49L172.622 391.301V391.31ZM168.035 407.237L175.01 403.528L170.089 413.397L167.65 409.501C167.778 408.749 167.907 407.997 168.035 407.237ZM168.745 416.089L165.108 423.377C165.742 420.181 166.366 416.806 166.991 413.286L168.745 416.089ZM162.926 433.699L169.986 430.178L164.501 439.842L162.318 436.339H162.31C162.515 435.476 162.729 434.596 162.934 433.69L162.926 433.699ZM170.911 433.741C170.012 437.603 169.122 441.03 168.249 443.926L167.299 444.362L166.032 442.328L170.911 433.741ZM164.954 445.439L164.021 445.866L164.595 444.858L164.954 445.439ZM171.339 442.499C172.366 438.834 173.418 434.519 174.471 429.691L177.569 433.733L173.093 441.688L171.339 442.499ZM179.264 435.954L180.898 438.09L177.064 439.859L179.264 435.954ZM186.051 435.724L186.538 425.598L189.782 430.494L187.771 434.929L186.051 435.724ZM187.822 399.222L191.639 404.707L187.078 414.542L187.822 399.23V399.222ZM185.383 382.808L186.162 380.51L185.922 385.371L185.383 382.808ZM190.287 348.331L194.078 353.928L189.491 364.822L190.295 348.331H190.287ZM191.408 325.33L194.968 329.833L190.706 339.65L191.4 325.33H191.408ZM192.504 302.696L195.533 307.147L191.862 315.845L192.504 302.696ZM194.095 280.506L196.543 284.146L193.265 292.006C193.548 288.29 193.822 284.445 194.095 280.506ZM195.482 258.555L197.895 261.896L194.806 269.748C195.037 266.074 195.268 262.34 195.49 258.555H195.482ZM196.552 239.296L198.34 241.774L196.072 248.182C196.235 245.234 196.398 242.278 196.552 239.296ZM197.527 219.849L198.957 221.669L197.211 226.334C197.313 224.172 197.425 222.011 197.527 219.857V219.849ZM198.349 202.059L199.855 203.871L198.058 208.51C198.152 206.349 198.255 204.204 198.349 202.059ZM199.094 184.774L200.454 186.329L198.854 190.405C198.931 188.516 199.016 186.637 199.094 184.774ZM199.735 168.77L200.899 170.069L199.53 174.034C199.598 172.256 199.667 170.496 199.735 168.762V168.77ZM200.283 154.339L201.267 155.313L200.138 158.218C200.189 156.911 200.232 155.62 200.283 154.339ZM200.762 141.095L201.618 142.026L200.617 145.222C200.668 143.812 200.72 142.436 200.762 141.086V141.095ZM201.225 127.655L202.243 128.705L201.079 132.029C201.13 130.508 201.182 129.047 201.225 127.646V127.655ZM197.039 119.631L196.492 119.059L197.485 118.196L197.039 119.623V119.631ZM192.401 177.135L192.658 177.434L192.324 178.229C192.35 177.862 192.375 177.503 192.401 177.135ZM161.428 439.825L163.037 442.405L160.007 447.737L158.998 448.198C159.802 445.763 160.615 442.961 161.428 439.825ZM195.927 439.945L194.908 452.941L161.009 467.962L160.795 467.919L160.761 468.073L149.455 473.08L143.541 464.04L195.918 439.945H195.927ZM184.373 463.032L183.183 460.947L186.307 459.563L184.373 463.032ZM187.206 463.211L186.727 467.159L185.862 465.638L187.214 463.211H187.206ZM168.36 475.729L167.154 474.148L169.293 471.029L168.36 475.729ZM172.674 467.193L174.052 469.218L171.467 473.251L172.665 467.201L172.674 467.193ZM175.626 471.516L177.877 474.814L171.758 477.549L175.626 471.508V471.516ZM177.133 469.167L179.315 465.757L178.605 471.311L177.141 469.158L177.133 469.167ZM182.097 464.219L182.91 465.646L181.617 467.97L182.097 464.211V464.219ZM175.558 466.859L174.223 464.903L177.826 463.305L175.549 466.859H175.558ZM165.519 471.986L163.679 469.577L168.686 467.355L165.51 471.986H165.519ZM155.531 479.317L159.494 474.302L157.928 481.975L155.531 479.317ZM162.524 472.294L163.996 474.225L161.342 478.104L162.532 472.294H162.524ZM153.794 477.386L151.595 474.943L157.945 472.131L153.794 477.395V477.386ZM152.185 479.428L147.837 484.939L150.208 477.232L152.185 479.428ZM153.922 481.368L156.601 484.341L148.83 487.819L153.922 481.359V481.368ZM165.63 476.378L167.693 479.087L167.633 479.403L161.753 482.034L165.63 476.378ZM176.474 478.258L175.113 487.033L161.77 492.313L165.091 483.35L176.474 478.258ZM184.39 468.261L186.042 471.166L181.686 473.114L184.39 468.261ZM190.013 461.357L190.561 462.493L189.636 464.433L190.013 461.357ZM145.604 492.074L161.805 484.82L158.552 493.578L142.925 499.764L145.604 492.074ZM166.965 635.543L165.065 635.928L166.803 633.963L166.965 635.543ZM168.352 632.22L170.26 630.075L168.549 634.108L168.36 632.228L168.352 632.22ZM138.894 690.074L144.157 700.695L136.266 701.549L138.894 690.074ZM133.494 719.065L144.423 706.684L141.718 719.065H133.494ZM141.153 721.628L137.97 736.197L132.501 721.628H141.153ZM135.659 704.189L143.995 703.284L133.023 715.707L135.659 704.181V704.189ZM135.753 737.598H128.016L130.943 724.79L135.753 737.598ZM136.712 740.161L136.754 740.281L123.934 755.422L127.426 740.161H136.712ZM138.611 745.228L143.781 758.993H135.607L138.62 745.228H138.611ZM132.971 758.993H124.268L136.001 745.143L132.971 758.993ZM143.772 721.628H152.562L140.717 735.607L143.772 721.628ZM144.328 719.065L147.059 706.573L153.255 719.065H144.328ZM140.374 687.314L148.899 686.169L146.117 698.892L140.374 687.314ZM136.977 529.857L133.81 538.445L131.26 532.711L136.977 529.857ZM134.315 528.319L140.229 521.023L138.269 526.346L134.315 528.319ZM164.235 556.832L151.68 564.855L154.333 555.371L164.261 556.661L164.235 556.832ZM83.2131 643.832L85.7977 641.311L85.8234 642.473L83.2559 645.011L83.2131 643.832ZM81.6127 646.643L78.8398 649.385L78.7713 648.172L81.5699 645.446L81.6127 646.643ZM87.8688 635.398L89.8972 634.937L87.4324 637.338L87.3981 635.877L87.8688 635.398ZM118.739 593.471L120.647 592.958V595.786L116.984 605.672L114.169 599.238L114.562 598.162L118.739 593.471ZM150.336 628.469L150.191 626.016L151.167 624.863L150.345 628.469H150.336ZM154.744 620.727L154.864 620.189L158.433 619.377L154.958 623.282L154.744 620.727ZM151.92 621.556L151.8 621.454L150.045 623.539L149.917 621.351L149.96 621.3L152.099 620.813L151.928 621.556H151.92ZM139.193 640.995L139.125 639.132L141.658 636.124L139.57 640.568L139.193 640.995ZM138.817 630.648L138.757 629.075L140.306 627.426L138.808 630.648H138.817ZM142.146 625.495L142.249 627.358L140.238 629.614L142.146 625.504V625.495ZM138.92 633.655L142.386 629.776L142.531 632.433L139.022 636.594L138.92 633.655ZM137.379 638.543L134.521 641.926L137.285 635.962L137.379 638.534V638.543ZM144.132 630.528L143.986 627.965L147.153 624.41L144.465 630.118L144.132 630.519V630.528ZM148.334 623.923L148.428 625.435L146.614 627.589L148.334 623.923ZM143.849 625.546L143.746 623.744L143.901 623.573L143.721 623.41L143.678 622.71L147.05 621.941L143.841 625.538L143.849 625.546ZM142.001 623.111L138.663 626.674L138.56 623.88L142.001 623.103V623.12V623.111ZM122.342 644.054V642.02L125.355 638.662L123.241 643.097L122.351 644.045L122.342 644.054ZM112.252 636.483V634.732L114.828 631.895L112.988 635.655L112.26 636.483H112.252ZM121.794 592.65H121.777H121.803H121.794ZM124.841 591.83L129.625 590.549V603.22L122.351 608.594V598.555L124.841 591.83ZM150.157 602.314L143.652 596.043L151.269 590.412V602.066L150.157 602.323V602.314ZM127.708 633.484L127.648 631.835L129.796 629.374L127.973 633.185L127.708 633.484ZM120.639 629.562V632.271L117.875 635.347L120.63 629.571V629.554L120.639 629.562ZM122.351 627.554L125.534 626.828L122.351 630.366V627.546V627.554ZM124.687 630.331L122.351 634.962V632.92L124.687 630.331ZM125.868 629.878L125.919 631.211L124.216 633.168L125.877 629.878H125.868ZM127.486 627.213L127.871 626.785L127.563 626.512L127.614 626.409L127.537 626.367L130.772 625.632L127.563 629.315L127.486 627.204V627.213ZM133.245 589.557L139.681 595.761L131.328 601.93V590.07L133.245 589.557ZM136.138 588.78L140.922 587.498V593.394L136.138 588.78ZM139.399 599.161L137.73 605.117L131.328 606.569V605.125L139.39 599.17L139.399 599.161ZM129.625 606.954L128.521 607.202L129.625 606.381V606.945V606.954ZM140.922 603.246V604.39L140.58 604.467L140.922 603.237V603.246ZM142.634 598.606L147.161 602.972L142.634 603.997V598.597V598.606ZM142.634 587.037L142.805 586.994L142.634 587.592V587.037ZM133.271 586.011L130.781 583.61L139.116 584.439L133.271 586.003V586.011ZM130.378 586.789L126.296 587.883L127.665 584.174L130.37 586.78L130.378 586.789ZM120.639 608.996L118.636 609.449L118.456 609.039L120.639 603.152V608.996ZM97.0605 636.278L96.3587 636.953L96.1961 634.604L97.6682 633.151L99.5767 632.715L97.0691 636.27L97.0605 636.278ZM93.0809 634.202L94.4331 633.894V633.946L91.7458 636.603V635.492L93.0809 634.202ZM94.5957 636.201L94.7498 638.508L91.7116 641.439L91.7287 639.03L94.5957 636.201ZM101.879 633.911L103.317 631.878L104.198 631.681L101.887 634.117V633.911H101.879ZM104.078 634.287L102.084 638.38L101.999 636.483L104.078 634.287ZM105.448 633.433V634.826L103.907 636.586L105.448 633.433ZM107.159 631.006L109.179 630.545L107.159 632.86V631.006ZM109.051 633.296L107.159 637.286V635.466L109.051 633.296ZM110.566 632.091V634.057L108.606 636.21L110.566 632.091ZM112.286 629.836L114.913 629.238L112.277 632.151V629.836H112.286ZM115.632 632.194V632.655L115.136 633.211L115.632 632.194ZM117.387 629.05L117.815 628.58L119.569 628.178L117.361 630.682L117.387 629.05ZM118.559 631.904L117.301 634.535L117.318 633.305L118.559 631.904ZM120.63 634.817V637.261L117.198 641.2L117.241 638.585L120.63 634.817ZM118.824 641.943L117.19 645.19L117.138 645.241L117.156 643.849L118.816 641.943H118.824ZM120.63 640.26V641.354L119.372 642.755L120.63 640.26ZM122.342 637.91L125.996 633.715L126.056 635.313L122.342 639.448V637.91ZM131.559 627.631L131.636 629.084L129.993 630.921L131.559 627.631ZM133.143 625.102L135.744 624.513L133.262 627.281L133.143 625.102ZM135.299 627.563L133.468 631.382L133.382 629.699L135.299 627.563ZM136.917 626.153L137.002 628.417L134.623 630.947L136.917 626.145V626.153ZM152.964 601.665V589.13L159.725 584.132L159.913 584.405L157.389 600.657L152.964 601.665ZM152.964 585.943V584.268L156.516 583.32L152.964 585.943ZM151.252 587.208L143.866 592.668L145.664 586.234L151.252 584.738V587.216V587.208ZM131.02 581.073L147.367 570.632L144.08 582.38L131.02 581.081V581.073ZM129.608 578.937L138.646 554.551L147.76 567.333L129.608 578.928V578.937ZM136.694 551.304L130.943 553.602L134.007 545.272L136.694 551.312V551.304ZM135.299 541.854L145.15 529.635L138.201 548.373L135.299 541.854ZM134.212 555.055L127.357 563.335L129.745 556.841L134.204 555.064L134.212 555.055ZM124.696 570.572L134.255 559.028L127.203 578.039L124.636 570.734L124.696 570.563V570.572ZM123.249 588.703L122.855 588.805L123.463 588.13L123.249 588.703ZM112.868 602.699L115.684 609.124L115.281 610.218L110.66 611.269V608.722L112.876 602.707L112.868 602.699ZM90.017 637.175V638.312L87.4837 640.807L87.458 639.67L90.017 637.175ZM85.8491 644.823L85.8919 647.027L83.4014 649.428L83.3243 647.318L85.8491 644.823ZM87.5265 643.165L89.9913 640.73L89.9742 643.097L87.5779 645.412L87.5351 643.165H87.5265ZM89.9571 645.489V646.326L87.6549 649.573L87.6207 647.745L89.9571 645.489ZM91.6773 643.832L91.7886 643.729L91.6773 643.883V643.832ZM94.3818 644.498L95.0921 643.746L95.2804 646.463L91.6345 650.641L91.6516 648.369L94.3818 644.498ZM96.6925 642.063L100.347 638.209L100.45 640.533L96.8637 644.643L96.684 642.063H96.6925ZM98.8578 644.968L97.129 648.505L97.0263 647.061L98.8492 644.968H98.8578ZM100.587 643.379L100.664 645.002L98.7808 647.087L100.587 643.379ZM102.196 641.14L105.431 637.432V639.722L102.29 643.199L102.196 641.14ZM104.061 643.797L102.478 647.138L102.41 645.626L104.061 643.797ZM105.439 642.9V644.216L104.096 645.745L105.439 642.909V642.9ZM107.151 640.388L110.54 636.637V638.431L107.151 642.268V640.38V640.388ZM110.138 641.473L107.476 646.908L107.142 647.275V644.865L110.138 641.473ZM110.523 642.635V643.524L109.573 644.575L110.523 642.635ZM112.243 639.115L112.277 639.047L115.572 635.304L115.53 637.944L112.226 641.619V639.115H112.243ZM113.253 643.045L112.226 645.207V644.19L113.253 643.045ZM112.568 646.463L115.264 640.807L115.495 640.55L115.452 643.233L112.654 646.446L112.568 646.463ZM115.418 645.874V645.891H115.401L115.418 645.874ZM120.63 643.934V644.84L119.638 645.036L120.63 643.934ZM126.176 638.919L126.21 639.927L125.158 641.046L126.176 638.919ZM127.785 635.954L131.765 631.519L131.893 633.886L127.862 638.175L127.785 635.954ZM130.258 638.115L128.025 642.781L127.948 640.576L130.258 638.115ZM132.021 636.406L132.141 638.662L129.557 641.559L132.021 636.406ZM133.639 634.518L137.088 630.844L137.165 633.04L133.759 636.859L133.639 634.527V634.518ZM135.779 637.158L133.981 641.037L133.887 639.277L135.779 637.158ZM137.456 641.089L137.473 641.456L137.079 641.533L137.456 641.08V641.089ZM142.702 635.868L142.762 636.953L141.547 638.32L142.702 635.868ZM144.26 633.023L148.565 627.922L148.71 630.289L144.38 635.15L144.26 633.031V633.023ZM153.067 627.956L153.563 627.401L153.726 629.34L152.416 630.801L153.067 627.947V627.956ZM155.129 625.64L157.688 622.77L156.567 626.17L155.292 627.589L155.129 625.64ZM159.759 621.932L159.819 622.53L159.417 622.983L159.759 621.932ZM158.082 627.033L160.05 624.837L160.273 627.067L160.238 627.136L156.832 630.818L158.073 627.033H158.082ZM161.599 623.103L162.695 621.881L161.693 624.026L161.599 623.103ZM165.382 620.172L165.51 621.428L164.064 622.992L165.382 620.172ZM161.368 620.796L161.171 618.839L161.274 618.719L163.713 618.164L161.36 620.787L161.368 620.796ZM146.742 582.414L150.054 570.572L156.61 579.765L146.742 582.414ZM149.027 564.71L141.153 553.662L151.731 555.038L149.027 564.71ZM142.06 551.193L155.146 542.828L152.433 552.543L142.069 551.193H142.06ZM156.182 539.12L140.7 549.014L149.609 524.996L156.473 538.12L156.19 539.12H156.182ZM138.004 534.412L140.297 528.183L144.859 525.901L138.004 534.412ZM127.734 554.884L123.412 556.61L130.19 548.194L127.725 554.884H127.734ZM126.544 558.122L123.292 566.957L120.964 560.353L126.544 558.131V558.122ZM123.241 574.536L125.568 581.158L120.202 582.799L123.241 574.536ZM117.121 583.739L112.688 585.097L119.774 576.536L117.121 583.739ZM123.232 584.55L118.354 590.027L117.455 590.267L119.098 585.806L123.232 584.542V584.55ZM112.671 595.846L112.38 595.18L112.979 595.017L112.671 595.846ZM110.959 598.341L110.66 598.674V597.657L110.959 598.341ZM108.948 605.954L106.654 612.192L101.802 613.294V612.491L108.957 604.459V605.954H108.948ZM84.7622 636.107L82.9734 637.927L82.9221 636.526L84.7622 636.107ZM85.7121 637.586L85.7378 638.978L83.1104 641.542L83.059 640.277L85.7036 637.586H85.7121ZM81.4672 643.148L78.6172 645.925L78.5573 644.857L81.4244 641.952L81.4672 643.156V643.148ZM76.9398 646.497L76.9997 647.497L74.8259 649.616L74.766 648.702L76.9484 646.489L76.9398 646.497ZM77.1366 649.761L77.2051 650.992L75.0655 653.102L74.9799 651.855L77.1366 649.753V649.761ZM73.4394 654.324L72.1985 654.572L73.371 653.427L73.4309 654.324H73.4394ZM77.342 653.273L77.3592 653.538L76.9997 653.606L77.342 653.265V653.273ZM79.0537 653.196L78.9596 651.667L81.6897 648.967L81.7667 651.034L79.6614 653.068L79.0537 653.188V653.196ZM83.5297 652.299L83.5126 651.744L85.9603 649.385L86.0117 651.803L83.5383 652.299H83.5297ZM89.9314 650.838V651.017L89.7859 651.043L89.9314 650.838ZM94.3989 650.12L95.4601 648.907L95.5286 649.898L94.3989 650.129V650.12ZM99.26 649.146L100.792 647.454L100.852 648.83L99.26 649.155V649.146ZM105.448 646.814V647.899L104.284 648.129L105.448 646.814ZM110.523 646.104V646.882L109.667 647.053L110.523 646.104ZM126.322 642.353L126.373 643.703L124.747 644.028L126.322 642.353ZM132.295 641.106L132.372 642.499L130.772 642.823L132.304 641.106H132.295ZM141.847 640.593L142.925 639.38L142.976 640.362L141.847 640.593ZM144.534 637.568L148.873 632.698L148.976 634.407L148.89 634.766L144.645 639.517L144.534 637.568ZM151.646 634.253L153.939 631.69L154.111 633.698L154.059 633.852L150.978 637.193L151.654 634.253H151.646ZM157.876 632.237L156.036 636.184L155.891 634.398L157.885 632.245L157.876 632.237ZM160.624 630.4L160.778 631.938L159.006 633.877L160.632 630.4H160.624ZM162.079 627.691L165.759 623.701L166.015 626.213L162.335 630.237L162.087 627.691H162.079ZM164.578 630.314L162.755 634.51L162.558 632.527L164.578 630.314ZM167.308 622.018L168.977 620.215L167.479 623.658L167.316 622.018H167.308ZM167.077 619.745L166.846 617.463L169.807 616.788L167.077 619.745ZM161.317 599.785L163.422 596.846V599.307L161.317 599.785ZM160.709 596.231L162.986 581.603L163.431 581.483V592.445L160.718 596.231H160.709ZM165.134 581.021L167.718 580.329L169.721 583.67L165.142 590.053V581.013L165.134 581.021ZM163.559 577.903L164.115 574.297L165.896 577.27L163.559 577.894V577.903ZM160.846 578.629L159.28 579.048L151.44 568.043L163.713 560.207L160.846 578.629ZM164.655 554.124L155.026 552.868L158.227 541.435L164.706 553.825L164.663 554.124H164.655ZM151.868 523.74L160.179 524.919L157.5 534.506L151.877 523.74H151.868ZM141.615 524.662L145.236 514.819L145.313 514.717L147.949 521.493L141.607 524.662H141.615ZM143.892 511.051L142.976 513.538L133.494 525.243L141.265 504.31L143.892 511.051ZM143.267 502.37L147.743 500.601L145.236 507.411L143.276 502.37H143.267ZM132.338 541.461L123.301 552.671L129.685 535.488L132.338 541.461ZM121.717 570.153L112.808 580.91L119.329 563.36L121.717 570.153ZM109.958 588.592L116.017 586.738L114.425 591.07L110.994 591.993L109.753 589.156L109.958 588.592ZM108.957 600.58L103.043 607.227L106.988 596.615L108.957 596.085V600.588V600.58ZM97.711 614.199L90.5904 615.814L91.2922 600.819L100.09 598.461V607.791L97.711 614.199ZM81.3302 639.576L78.6857 642.268L81.2789 638.218L81.3302 639.576ZM73.1912 650.821L73.2169 651.163L72.5665 651.795L73.1912 650.821ZM68.6724 657.861L83.9748 654.794L80.0208 660.382L65.1036 663.424L68.6724 657.861ZM76.5975 663.697L66.6441 673.028L72.3525 664.569L76.5975 663.706V663.697ZM60.3194 677.804L63.409 666.38L68.758 665.287L60.3194 677.796V677.804ZM45.3508 699.994L40.019 707.889L41.7306 700.293L45.3423 699.985L45.3508 699.994ZM44.2639 697.516L51.7782 690.476L47.1909 697.268L44.2639 697.516ZM48.6373 699.721L49.998 699.609L46.3864 703.053L48.6287 699.721H48.6373ZM25.8121 728.968L20.4973 736.838L23.1846 729.088L25.8121 728.96V728.968ZM25.6238 726.413L30.9899 721.295L27.6008 726.319L25.6238 726.413ZM29.0043 728.814L31.084 728.712L24.8535 734.966L29.0043 728.814ZM30.793 726.166L34.5074 720.663L33.2921 726.046L30.793 726.166ZM49.4075 703.719L43.5022 712.076L40.4811 712.238L49.4161 703.719H49.4075ZM50.4773 696.995L53.8065 692.065L52.5142 696.824L50.4773 696.995ZM72.4552 671.097L66.7981 679.103L63.1266 679.838L72.4467 671.097H72.4552ZM56.7677 681.111L53.3187 681.803L58.9672 673.002L56.7677 681.119V681.111ZM51.393 684.802L54.8164 684.118L47.3449 691.125L51.4016 684.802H51.393ZM36.356 712.46L33.5488 712.614L37.828 705.949L36.356 712.469V712.46ZM31.8457 715.271L33.6858 715.169L29.107 719.535L31.8457 715.263V715.271ZM15.987 742.015H14.6947L17.5104 737.632L15.9956 742.015H15.987ZM15.097 744.579L14.9943 744.861L9.00341 750.876L13.043 744.579H15.0884H15.097ZM7.67686 755.849L5.56294 758.985H4.55306L7.67686 755.849ZM11.6479 754.559L10.116 758.993H8.66108L11.6479 754.559ZM17.228 746.279L17.2622 746.228L18.9055 744.579H20.5401L15.1997 752.141L17.228 746.288V746.279ZM21.4644 742.015L24.5197 738.948L22.2518 742.161V742.015H21.4644ZM38.4442 714.921L41.6194 714.75L37.0064 721.278L38.4442 714.921ZM58.2483 685.486L59.8487 683.119L64.65 682.162L55.7321 694.79L58.2483 685.494V685.486ZM79.6528 665.372L79.7641 668.192C78.0781 669.567 76.3578 671.003 74.6034 672.515L79.6442 665.372H79.6528ZM82.2545 666.192L82.0834 661.937L85.6522 656.887L85.7378 663.492C84.591 664.355 83.4356 665.261 82.2545 666.192ZM88.2796 661.595L88.1769 653.965L92.1652 653.162L90.9413 659.699C90.0598 660.314 89.1697 660.946 88.2711 661.595H88.2796ZM94.8867 652.615L96.7268 652.248L95.8709 656.426C95.2376 656.828 94.5957 657.246 93.9453 657.674L94.8867 652.624V652.615ZM99.4654 651.692L100.758 651.436L99.9704 653.948C99.6024 654.162 99.2344 654.367 98.8664 654.58L99.4654 651.692ZM103.625 650.855L107.844 650.009C106.346 650.641 104.797 651.376 103.205 652.188L103.625 650.855ZM130.027 645.557L129.026 648.001C128.513 647.805 127.991 647.625 127.46 647.471C126.287 647.138 125.064 646.925 123.788 646.814L130.027 645.557ZM133.049 644.951L134.178 644.729L131.731 649.326C131.602 649.249 131.474 649.172 131.345 649.103L133.049 644.959V644.951ZM137.43 644.071L138.8 643.797L134.221 651.086C134.101 650.983 133.981 650.881 133.862 650.787L137.439 644.071H137.43ZM142.266 643.097L144.902 642.567L137.114 654.042C136.789 653.641 136.455 653.256 136.112 652.889L142.266 643.097ZM142.326 663.407C141.838 662.142 141.324 660.946 140.768 659.818L144.166 655.367L142.326 663.407ZM147.469 652.427L153.76 663.825L153.426 665.363L144.157 666.901L147.469 652.427ZM143.541 669.602L151.74 668.234L140.854 681.316L143.533 669.602H143.541ZM149.421 650.65L156.909 649.411L154.59 660.023L149.421 650.659V650.65ZM145.544 649.326L139.424 657.349C139.193 656.964 138.962 656.597 138.723 656.238L146.631 644.583L145.544 649.317V649.326ZM146.862 639.559L148.086 638.192L147.82 639.371L146.862 639.559ZM152.75 637.756L152.527 638.423L152.04 638.517L152.75 637.748V637.756ZM160.983 634.211L161.231 636.68L158.167 637.295L160.983 634.211ZM165.168 633.185L166.409 630.34L166.537 631.639L165.168 633.185ZM171.27 619.172L171.399 620.292L170.226 621.573L171.27 619.164V619.172ZM165.117 598.914V594.453L168.942 589.113L167.573 598.35L165.117 598.905V598.914ZM170.277 579.637L170.354 579.62L170.337 579.74L170.277 579.637ZM168.455 576.587L165.399 571.469L171.835 569.649L170.902 575.921L168.455 576.578V576.587ZM168.848 543.759L174.548 551.347L174.343 552.731L165.468 565.522L168.848 543.751V543.759ZM170.012 541.034L176.32 539.444L175.087 547.784L170.021 541.034H170.012ZM166.905 539.581L165.356 549.569L160.161 539.641L167.641 534.865L166.948 539.308L166.794 539.513L166.905 539.59V539.581ZM168.164 531.472L159.443 537.043L162.729 525.286L168.985 526.175L168.164 531.472ZM169.379 523.646L163.422 522.8L165.528 515.289L169.584 522.33L169.379 523.646ZM160.863 522.441L153.067 521.339L163.046 514.657L160.872 522.441H160.863ZM147.17 512.435L154.975 502.797L152.981 501.182L147.983 507.36L150.936 499.345L157.337 496.816L149.412 518.186L147.17 512.435ZM108.46 592.633L108.486 592.685H108.443L108.469 592.633H108.46ZM101.802 603.203V598.016L103.941 597.444L101.802 603.203ZM82.6482 603.16L89.5548 601.306L88.8531 616.233L82.0064 617.788L82.6482 603.16ZM124.25 658.596C116.146 655.076 104.498 658.109 90.5391 667.388C80.7568 673.891 69.8107 683.495 58.2997 695.594L68.6039 681.008L68.7494 681.162C95.4601 656.665 114.434 646.455 126.75 649.949C133.451 651.855 138.192 657.836 141.23 668.217L136.848 687.382C136.66 671.985 132.398 662.142 124.25 658.596ZM160.461 684.623L149.018 697.584L151.595 685.81L160.47 684.623H160.461ZM149.463 683.512L141.504 684.58L151.988 671.977L149.472 683.503L149.463 683.512ZM156.738 662.253L159.639 648.975L169.088 647.412L156.738 662.262V662.253ZM172.537 630.16L171.484 631.485L172.434 629.255L172.537 630.16ZM171.998 625.495L168.087 629.904L167.804 627.136L168.121 626.418L171.664 622.547L171.998 625.487V625.495ZM172.931 618.625L172.657 616.207L172.734 616.122L175.875 615.404L172.931 618.617V618.625ZM170.26 597.751L171.818 587.225L177.167 596.179L170.252 597.751H170.26ZM173.042 579.022L173.059 578.894L173.145 578.868L173.033 579.022H173.042ZM181.771 566.855L176.294 574.485L173.607 575.203L174.54 568.888L181.771 566.846V566.855ZM166.529 568.495L173.495 558.464L172.246 566.889L166.529 568.504V568.495ZM185.092 537.231L177.638 547.972L179.007 538.761L185.092 537.231ZM176.713 536.702L170.979 538.146L177.886 528.798L176.713 536.702ZM188.909 509.565L181.934 519.006L183.098 511.171L188.909 509.565ZM179.632 517.007L176.816 512.905L180.393 511.914L179.64 517.007H179.632ZM174.197 513.623L179.084 520.732L178.69 523.389L170.235 534.839L173.504 513.82L174.206 513.623H174.197ZM170.209 518.28L166.7 512.196L171.672 508.872L170.209 518.28ZM172.203 505.429L167.376 508.659L168.78 503.652L166.306 502.96L164.697 508.71L161.214 502.669L158.989 503.951L163.285 511.402L151.808 519.083L160.538 495.543L174.617 489.972L172.212 505.429H172.203ZM193.394 479.787L177.834 485.939L179.221 477.01L193.565 470.593L193.394 479.787ZM193.154 467.962L190.107 469.329L191.956 465.458L193.163 467.962H193.154ZM191.939 459.52L190.954 457.478L193.436 456.375L191.939 459.511V459.52ZM191.502 433.194L191.28 433.297L191.4 433.032L191.502 433.194ZM190.98 427.752L186.983 421.711L195.696 417.37L190.98 427.752ZM197.698 413.508L188.13 418.276L193.282 407.16L197.698 413.508ZM188.781 396.197L197.741 391.438L192.837 402.024L188.789 396.197H188.781ZM188.207 390.139L189.012 373.623L192.795 378.963L188.207 390.139ZM193.941 376.152L190.304 371.017L197.621 367.172L193.941 376.152ZM200.129 362.959L199.693 363.19L199.325 363.036L199.145 363.481L190.989 367.77L195.747 356.474L200.138 362.959H200.129ZM195.208 351.117L191.956 346.315L199.111 341.846L195.208 351.117ZM201.062 337.608L191.845 343.358L196.714 332.123L201.053 337.608H201.062ZM192.598 322.783L199.735 318.733L196.072 327.175L192.598 322.792V322.783ZM200.891 315.119L193.017 319.596L197.194 309.685L200.891 315.119ZM193.548 299.756L200.805 294.519L196.663 304.345L193.548 299.756ZM201.156 291.101L194.318 296.031L198.203 286.709L201.156 291.101ZM194.729 276.926L201.447 272.252L197.673 281.309L194.729 276.926ZM202.525 268.381L196.372 272.662L199.633 264.365L202.525 268.373V268.381ZM196.261 255.317L201.961 251.438L198.965 259.059L196.261 255.317ZM202.697 247.84L197.664 251.258L200.129 244.294L202.697 247.832V247.84ZM196.723 235.22C196.731 234.972 196.748 234.725 196.757 234.485L202.277 230.555L199.342 238.843L196.723 235.22ZM203.013 226.881L198.512 230.094L200.779 224.036L203.022 226.881H203.013ZM197.673 215.944C197.673 215.893 197.673 215.833 197.673 215.782L202.491 212.099L199.958 218.866L197.664 215.944H197.673ZM203.398 208.177L199.855 210.886L201.695 206.126L203.398 208.177ZM200.874 201.128L198.477 198.249C198.477 198.249 198.477 198.172 198.477 198.129L203.544 194.198L200.865 201.119L200.874 201.128ZM204.1 190.533L200.403 193.395L202.32 188.499L204.1 190.533ZM201.473 183.638L199.658 181.57L203.493 178.485L201.473 183.646V183.638ZM204.622 174.281L201.165 177.067L202.825 172.265L204.622 174.281ZM201.824 167.284L200.497 165.797L203.073 163.661L201.824 167.284ZM204.836 158.859L201.541 161.602L203.227 157.269L204.836 158.859ZM202.243 152.698L201.361 151.827L203.27 150.049L202.243 152.698ZM204.605 145.299L202.671 147.102L203.587 144.197L204.605 145.299ZM202.465 139.189L201.55 138.198L203.219 136.788L202.465 139.189ZM205.17 131.781L203.279 133.379L204.194 130.773L205.17 131.781ZM203.15 125.988L202.859 125.689L203.424 125.211L203.15 125.988ZM201.464 119.127C201.498 118.016 201.533 116.974 201.558 116.017L202.329 116.709L201.464 119.127ZM203.261 114.103L202.731 113.625L203.758 112.736L203.27 114.103H203.261ZM199.068 113.394L195.679 116.325C195.687 115.598 195.696 114.915 195.696 114.274C196.834 113.394 197.981 112.514 199.119 111.634C199.102 112.163 199.085 112.753 199.068 113.394ZM205.726 103.32C203.706 104.884 196.372 110.531 194.96 111.634C194.267 109.95 193.573 108.267 192.88 106.584L204.211 98.8C204.716 100.304 205.221 101.816 205.726 103.32Z" fill="#012464"/>
<path d="M206.538 698.677C206.538 698.677 220.642 722.696 223.483 760.291H278.805C278.805 760.291 255.56 696.404 287.055 675.539C303.966 664.337 357.644 723.55 371.98 761.573C382.789 761.573 410.646 762 410.646 762C410.646 762 344.285 652.631 272.531 652.05C220.248 651.486 206.529 698.677 206.529 698.677H206.538Z" fill="#146EF5"/>
<path d="M224.836 513.357L140.845 502.002L194.745 480.675L283.898 493.509L224.836 513.357Z" fill="#146EF5"/>
<path d="M211.143 69.7904C194.189 69.7904 190.312 83.6495 188.48 93.1765L202.208 81.838H211.134L234.884 88.5967C232.847 80.9409 224.819 69.7819 211.134 69.7819L211.143 69.7904Z" fill="#146EF5"/>
<path d="M447.156 759.24C407.24 708.384 375.591 666.123 350.173 626.357L351.944 613.054H352.021L352.312 609.653L349.574 609.414V594.811H349.676L350.027 591.419L327.818 589.121C326.158 586.139 324.523 583.165 322.923 580.192L323.026 580.064L322.717 579.816C317.009 569.169 311.703 558.54 306.773 547.783L306.885 547.646L306.594 547.407C302.04 537.461 297.796 527.404 293.833 517.151L293.944 517.023L293.705 516.818C291.017 509.828 288.45 502.754 286.011 495.542L281.124 480.444C279.643 475.651 278.214 470.789 276.827 465.859L282.998 453.188L283.118 452.188V447.061L271.239 444.72C269.793 438.859 268.398 432.886 267.054 426.802L267.105 426.751L267.011 426.649C265.137 418.172 263.357 409.457 261.654 400.468L261.679 400.451L261.645 400.409C247.797 327.217 239.376 236.245 230.193 108.941C232.119 104.421 234.044 99.9014 235.97 95.3814C236.081 95.2019 236.15 94.9798 236.15 94.7149V88.6227C236.15 88.5031 236.141 88.3835 236.107 88.2639C233.496 79.1811 226.573 72.1491 217.809 69.5687V60.2638C217.809 57.8628 216.114 55.7951 213.709 54.915V2.62314C213.709 1.17913 212.546 0 211.116 0C209.687 0 208.523 1.17913 208.523 2.62314V54.915C206.118 55.7951 204.424 57.8628 204.424 60.2638V69.5003C194.282 72.4823 189.369 81.8214 187.221 92.8351L187.17 98.9273L202.772 87.5547L207.624 103.08L205.784 106.557C205.784 265.731 201.189 375.348 193.486 466.645L193.4 466.628L192.023 482.136L192.125 482.153C189.053 515.801 185.51 546.065 181.556 573.989L176.806 573.493L176.617 575.279H176.575V575.714L176.455 576.894H176.575V595.179L176.335 597.981H176.481V607.269C167.263 663.602 156.24 711.033 144.01 759.881L143.428 762.009H195.609L195.857 760.59L204.809 708.213C212.28 680.999 228.558 662.269 250.998 655.776C269.056 650.555 290.281 653.537 312.353 664.414C335.375 675.753 358.466 694.935 381.051 721.491L410.167 761.308L410.629 762.009H449.553L447.131 759.249L447.156 759.24ZM438.992 754.361L422.936 745.039L431.52 744.774C433.976 747.936 436.467 751.131 438.992 754.361ZM419.915 729.753C422.868 733.607 425.872 737.495 428.927 741.442L417.373 741.801L417.33 741.75L419.915 729.762V729.753ZM406.744 727.489H416.902L414.617 738.084L406.744 727.489ZM409.902 737.486L392.682 727.489H402.482L409.902 737.486ZM404.202 724.071L397.783 715.433L412.666 724.071H404.202ZM412.461 719.996L397.937 711.562L406.102 711.596C408.199 714.373 410.312 717.176 412.461 720.004V719.996ZM395.823 697.823C398.348 701.241 400.915 704.684 403.526 708.17L392.982 708.127L395.823 697.823ZM360.973 671.583L340.356 659.253L352.561 660.227H352.552L360.982 671.583H360.973ZM344.567 665.756L361.341 675.787L351.765 675.599L344.567 665.756ZM346.048 673.574C343.942 671.891 341.794 670.259 339.603 668.695L340.134 665.482L346.048 673.565V673.574ZM362.916 679.239L360.374 687.382L354.298 679.068L362.916 679.239ZM366.476 679.307H366.708L375.814 691.577L363.104 691.115L362.891 690.816L366.476 679.307ZM373.957 683.34L388.506 692.047L380.196 691.748L373.957 683.349V683.34ZM378.424 695.097L385.125 704.129L368.984 694.755L378.424 695.097ZM382.806 695.26L392.87 695.627L390.217 705.248L382.806 695.26ZM388.754 688.21L374.136 679.461L382.541 679.623C384.577 682.46 386.649 685.322 388.754 688.202V688.21ZM380.059 676.163L368.453 675.932L367.803 675.052L371.321 663.773C374.17 667.858 377.08 671.984 380.059 676.154V676.163ZM365.278 671.651L357.062 660.586L368.445 661.492L365.278 671.643V671.651ZM367.298 657.98L337.113 655.571L332.388 649.103L362.788 651.367C364.277 653.563 365.775 655.767 367.307 657.98H367.298ZM280.542 632.612L282.108 630.194L286.712 634.278L285.18 636.67L280.533 632.62L280.542 632.612ZM283.785 638.849L282.485 640.883L281.227 636.619L283.785 638.849ZM271.333 632.467L273.199 629.604L277.178 633.082L275.244 636.081L271.333 632.467ZM273.832 638.268L272.685 640.045L271.667 636.269L273.832 638.268ZM261.482 631.757L263.511 628.75L267.995 632.885L266.13 635.748L261.482 631.757ZM264.717 637.909L263.399 639.926L262.261 635.799L264.717 637.901V637.909ZM201.967 626.639L204.107 623.794L209.028 627.878L206.82 630.886L201.967 626.648V626.639ZM205.297 632.954L203.722 635.09L202.541 630.544L205.297 632.945V632.954ZM195.771 630.604L191.441 626.827L194.077 623.162L198.484 627.007L195.771 630.604ZM197.637 635.637L195.326 635.466L196.165 634.355L197.637 635.637ZM194.231 632.663L193.186 634.047L192.476 631.134L194.222 632.663H194.231ZM180.939 624.922L182.745 622.641L188 627.229L186.485 629.339L180.939 624.922ZM184.988 631.433L183.019 634.175L181.753 628.861L184.988 631.433ZM178.937 615.925L184.431 616.395L182.403 618.949L178.937 615.925ZM180.803 620.957L180.084 621.863L179.621 619.923L180.803 620.957ZM186.588 617.787L188.069 623.888L184.329 620.624L186.588 617.779V617.787ZM186.99 633.03L189.506 635.03L185.758 634.748L186.999 633.022L186.99 633.03ZM188.488 630.946L189.455 629.596L190.097 632.227L188.488 630.946ZM189.583 619.248L192.125 621.47L190.628 623.555L189.583 619.248ZM190.833 616.933L195.121 617.3L193.632 619.377L190.833 616.933ZM195.574 621.068L196.935 619.171L197.971 623.162L195.574 621.068ZM199.665 629.698L201.112 635.269L197.705 632.296L199.665 629.698ZM200.812 623.905L199.871 620.282L202.13 622.153L200.812 623.905ZM200.872 617.779L205.151 618.146L203.679 620.103L200.88 617.779H200.872ZM205.647 621.743L207.128 619.778L208.206 623.871L205.639 621.743H205.647ZM207.231 634.645L209.362 636.508L206.041 636.26L207.231 634.645ZM208.754 632.569L210.046 630.809L211.039 634.56L208.754 632.569ZM209.901 620.231L212.734 622.82L211.151 624.973L209.901 620.231ZM212.058 618.727L215.524 619.018L214.257 620.735L212.058 618.719V618.727ZM214.634 624.563L215.49 625.349L214.805 629.356L212.511 627.451L214.634 624.563ZM214.309 632.27L213.821 635.107L212.725 630.963L214.309 632.279V632.27ZM216.063 661.441C214.659 662.825 213.316 664.269 212.049 665.79L213.401 657.895L216.063 661.432V661.441ZM213.992 654.426L214.882 649.231L221.181 656.981C220.068 657.844 218.99 658.741 217.937 659.672L213.992 654.417V654.426ZM215.455 645.873L216.38 640.464H216.465L226.487 653.341C225.383 654.016 224.296 654.725 223.244 655.46L215.447 645.873H215.455ZM228.507 629.211L226.102 632.432L221.626 628.331L224.082 625.016L228.507 629.211ZM225.623 622.94L226.521 621.726L227.369 624.606L225.623 622.948V622.94ZM238.263 631.023L236.654 633.406L231.922 628.921L233.514 626.793L238.263 631.023ZM235.054 624.734L236.637 622.606L237.938 627.297L235.054 624.725V624.734ZM238.495 638.687L236.295 638.525L237.091 637.354L238.503 638.687H238.495ZM235.2 635.56L233.864 637.542L232.538 633.03L235.208 635.56H235.2ZM233.128 623.016L230.03 620.265L234.874 620.675L233.128 623.016ZM231.588 625.076L230.587 626.426L229.697 623.392L231.596 625.084L231.588 625.076ZM231.006 636.935L228.002 634.175L229.577 632.073L231.006 636.935ZM228.293 637.926L225.366 637.713L226.461 636.252L228.293 637.935V637.926ZM224.562 634.5L223.184 636.346L222.028 632.176L224.562 634.5ZM223.748 621.162L222.08 619.582L224.75 619.804L223.748 621.154V621.162ZM222.208 623.239L220.274 625.845L219.409 622.709L219.717 620.889L222.208 623.247V623.239ZM220.796 637.362L216.953 637.081L218.365 628.818L218.459 628.904L220.796 637.371V637.362ZM219.914 640.72L224.895 641.088L231.34 650.632C230.45 651.068 229.577 651.538 228.721 652.016L219.923 640.712L219.914 640.72ZM228.156 641.336L232.358 641.652L232.384 641.677L232.401 641.66L234.532 641.823L238.58 647.633C236.911 648.222 235.285 648.855 233.702 649.555L228.156 641.344V641.336ZM237.827 642.053L243.398 642.472L244.776 645.745C243.535 646.061 242.312 646.403 241.105 646.77L237.827 642.053ZM241.789 625.793L240.651 627.477L239.676 623.965L241.781 625.793H241.789ZM240.317 621.128L244.699 621.496L243.236 623.657L240.317 621.128ZM240.694 637.226L238.537 635.184L239.667 633.518L240.694 637.226ZM242.739 634.996L244.425 636.5L243.51 637.781L242.739 634.996ZM241.644 630.587L243.741 627.485L248.123 631.287L245.915 634.398L241.644 630.595V630.587ZM245.187 625.341L246.394 623.563L247.438 627.289L245.187 625.341ZM251.469 626.571L250.348 628.152L249.406 624.802L251.469 626.571ZM250.014 621.94L254.49 622.324L252.967 624.469L250.014 621.94ZM250.605 638.559L247.849 636.106L249.329 634.022L250.605 638.559ZM246.351 638.208L247.635 639.353L245.641 639.208L246.351 638.217V638.208ZM251.709 643.079L251.906 644.283C250.348 644.531 248.825 644.822 247.318 645.146L246.274 642.669L251.709 643.07V643.079ZM251.572 630.869L253.429 628.254L258.042 632.21L256.219 634.91L251.563 630.877L251.572 630.869ZM254.927 626.152L256.356 624.136L257.528 628.382L254.927 626.152ZM254.79 637.046L253.429 639.071L252.239 634.833L254.79 637.046ZM258.11 643.557C257.409 643.617 256.707 643.668 256.005 643.745C255.483 643.805 254.969 643.882 254.456 643.95L254.353 643.284L258.119 643.566L258.11 643.557ZM255.911 639.969L256.732 638.738L258.359 640.148L255.902 639.969H255.911ZM258.179 636.602L259.326 634.902L260.301 638.439L258.179 636.602ZM259.197 624.794L261.576 626.981L260.318 628.844L259.197 624.785V624.794ZM260.9 622.871L264.161 623.153L263.023 624.836L260.9 622.88V622.871ZM264.931 626.588L265.95 625.076L266.831 628.34L264.931 626.588ZM266.652 639.584L268.158 640.874L265.916 640.703L266.652 639.576V639.584ZM268.064 637.414L268.928 636.089L269.656 638.781L268.064 637.414ZM268.8 625.776L271.213 627.878L269.912 629.878L268.8 625.776ZM270.272 623.657L273.772 623.956L272.625 625.716L270.272 623.666V623.657ZM274.577 627.417L275.424 626.109L276.237 628.861L274.577 627.408V627.417ZM275.715 640.02L277.392 641.566L274.842 641.378L275.715 640.02ZM277.127 637.832L278.334 635.961L279.541 640.054L277.127 637.832ZM279.207 629.869L278.317 626.844L280.122 628.451L279.207 629.869ZM279.472 624.443L282.545 624.708L281.535 626.272L279.472 624.443ZM283.477 627.989L284.641 626.186L285.891 630.125L283.477 627.989ZM285.711 640.541L287.765 642.335L284.71 642.105L285.711 640.533V640.541ZM287.106 638.354L288.03 636.901L289.023 640.028L287.106 638.354ZM289.87 629.254L288.826 630.894L287.688 627.289L289.879 629.254H289.87ZM289.271 625.272L292.241 625.529L291.265 627.058L289.271 625.272ZM293.67 646.197L293.516 646.958C291.976 646.556 290.427 646.18 288.886 645.847L293.67 646.206V646.197ZM291.137 638.208L293.345 640.165L292.318 641.934L291.137 638.208ZM290.016 633.791L291.805 630.988L296.332 635.047L294.663 637.909L290.016 633.791ZM293.2 628.801L294.107 627.383L295.065 630.467L293.2 628.792V628.801ZM295.296 641.908L296.52 642.993L294.74 642.857L295.296 641.9V641.908ZM296.246 646.403L300.5 646.719V648.991C299.002 648.513 297.496 648.06 295.99 647.633L296.238 646.394L296.246 646.403ZM305.609 635.825L304.06 638.542L299.601 634.543L301.142 631.903L305.609 635.825ZM302.46 629.647L303.401 628.032L304.385 631.347L302.451 629.655L302.46 629.647ZM305.969 643.702L304.137 643.566L304.702 642.575L305.96 643.702H305.969ZM300.491 627.921L298.36 626.05L301.424 626.306L300.483 627.912L300.491 627.921ZM299.173 630.177L298.181 631.868L297.077 628.34L299.165 630.177H299.173ZM297.462 638.191L298.412 641.233L296.614 639.644L297.462 638.191ZM300.277 638.593L302.751 640.814L301.595 642.839L300.277 638.601V638.593ZM303.067 649.709V646.907L308.862 647.342L308.673 651.905C306.679 651.119 304.676 650.393 302.665 649.709H303.067ZM306.688 639.097L307.424 641.558L306.012 640.293L306.696 639.097H306.688ZM306.534 629.579L308.297 631.091L307.432 632.603L306.534 629.57V629.579ZM307.253 626.81L310.59 627.092L309.606 628.818L307.261 626.802L307.253 626.81ZM310.291 632.791L314.681 636.559L313.166 639.054L308.87 635.286L310.291 632.8V632.791ZM311.583 630.527L312.61 628.724L313.714 632.355L311.583 630.527ZM315.366 644.403L313.021 644.232L313.765 643.002L315.366 644.403ZM311.806 641.276L310.599 643.258L309.375 639.14L311.806 641.276ZM311.412 647.53L315.528 647.838V654.827C314.091 654.169 312.644 653.537 311.189 652.93L311.412 647.539V647.53ZM315.109 640.772L315.871 639.516L316.667 642.147L315.101 640.772H315.109ZM316.615 627.605L319.962 627.887L318.704 629.758L317.642 628.861L317.591 628.921L316.624 627.596L316.615 627.605ZM320.852 641.857L319.808 643.608L318.721 640.028L320.86 641.857H320.852ZM320.681 631.416L321.742 629.843L323.342 633.654L320.681 631.424V631.416ZM318.241 635.611L319.457 637.277L317.993 636.021L318.241 635.611ZM318.096 648.026L324.07 648.47L322.906 658.442C321.314 657.604 319.714 656.784 318.105 656.015V648.026H318.096ZM322.024 644.89L322.829 643.549L324.617 645.078L322.024 644.882V644.89ZM177.276 622.034C177.302 621.906 177.319 621.777 177.345 621.641L177.473 622.188L177.276 622.025V622.034ZM177.276 625.315L176.532 626.246C176.609 625.802 176.686 625.358 176.763 624.913L177.268 625.315H177.276ZM349.539 635.269L347.751 633.723L348.453 632.458L349.548 635.269H349.539ZM343.728 635.679L342.556 632.612L344.499 634.295L343.728 635.679ZM344.473 644.822L342.547 643.113L343.3 641.754L344.473 644.822ZM343.309 629.869L346.775 630.16L345.765 631.988L343.309 629.86V629.869ZM336.163 637.448L337.592 634.868L342.008 638.772L340.579 641.361L336.163 637.448ZM339.304 643.668L338.824 644.54L338.071 642.583L339.304 643.677V643.668ZM334.511 640.447L335.983 644.292L333.527 642.224L334.511 640.447ZM333.869 631.578L335.624 633.133L334.939 634.372L333.869 631.578ZM335.007 629.16L337.686 629.391L336.89 630.826L335.007 629.16ZM338.867 632.569L339.415 631.569L340.271 633.808L338.867 632.561V632.569ZM341.281 645.411L342.402 646.411L340.793 646.291L341.281 645.411ZM331.926 633.68L329.838 631.826L330.677 630.424L331.918 633.68H331.926ZM328.76 628.63L327.887 630.091L325.97 628.391L328.76 628.63ZM326.543 632.33L325.97 633.295L324.985 630.946L326.543 632.33ZM325.567 638.969L326.423 641.002L325.285 639.447L325.567 638.969ZM326.629 648.658L327.844 648.752L330.805 652.811L329.821 662.338C328.34 661.449 326.843 660.595 325.328 659.757L326.62 648.667L326.629 648.658ZM329.804 642.438L330.266 642.831L330.095 643.139L329.804 642.438ZM327.63 637.26L327.202 636.235L328.503 634.064L332.936 637.995L331.533 640.533L327.639 637.26H327.63ZM332.269 644.506L333.758 645.762L331.652 645.608L332.26 644.506H332.269ZM337.943 662.56L337.207 667.054C335.572 665.935 333.92 664.858 332.252 663.816L333.073 655.887L337.951 662.551L337.943 662.56ZM346.39 642.643L348.17 644.215L347.468 645.463L346.39 642.643ZM358.851 646.719L359.519 647.3L359.784 646.992C359.955 647.24 360.118 647.488 360.28 647.735L358.303 647.59L358.842 646.719H358.851ZM356.891 645.018L356.395 645.813L355.676 643.959L356.891 645.01V645.018ZM354.255 638.653C354.606 639.182 354.948 639.712 355.299 640.242L353.99 639.114L354.247 638.653H354.255ZM352.244 642.224L353.528 645.531L351.431 643.677L352.244 642.224ZM349.582 646.941L350.139 645.958L351.405 647.078L349.582 646.941ZM349.454 641.934L345.252 638.217L346.476 636.004L350.721 639.687L349.454 641.934ZM184.32 595.23L187.444 593.12V595.495L184.32 595.23ZM201.976 567.537L201.539 576.056L200.701 575.971L191.946 566.598L201.967 567.546L201.976 567.537ZM190.696 563.043L202.661 554.277L202.156 564.12L190.696 563.035V563.043ZM201.137 583.9L200.487 596.631L200.179 596.606V584.558L201.137 583.909V583.9ZM198.467 585.703V596.452L189.164 595.649V591.975L198.467 585.703ZM189.164 587.856V578.218L198.467 579.184V581.585L189.164 587.856ZM206.135 553.328L217.715 565.598L205.562 564.453L206.127 553.337L206.135 553.328ZM206.016 488.681L201.3 483.46L206.247 484.17L206.016 488.681ZM208.925 584.772V580.252L218.845 581.277V595.392L208.925 584.772ZM216.602 598.007L208.925 597.349V589.787L216.602 598.007ZM211.27 577.065L220.625 570.759L220.556 578.03L211.262 577.065H211.27ZM209.336 490.672L209.644 484.657L216.097 485.579L209.336 490.672ZM220.873 486.254L221.369 486.323L221.198 505.496L210.723 493.902L220.864 486.254H220.873ZM216.431 505.317L208.617 504.727L209.011 497.097L216.44 505.317H216.431ZM219.324 508.957L207.95 517.715L208.438 508.137L219.324 508.948V508.957ZM221.138 511.871L220.95 533.479L209.43 520.885L221.138 511.871ZM218.066 535.393L207.111 534.069L207.624 523.978L218.066 535.393ZM220.881 540.905L220.676 563.752L208.01 550.329L220.881 540.896V540.905ZM217.946 538.82L206.435 547.253L206.931 537.487L217.946 538.82ZM217.15 568.964L205.964 576.509L204.946 576.407L205.382 567.862L217.15 568.973V568.964ZM207.205 580.072V582.935L205.408 581.012L206.846 580.038L207.205 580.072ZM205.194 504.471L197.457 503.89L205.536 497.798L205.194 504.463V504.471ZM205.014 507.889L204.62 515.639L196.978 507.282L205.014 507.889ZM207.197 587.95V597.195L203.884 596.913L204.492 585.054L207.197 587.95ZM203.696 533.659L194.316 532.522L204.141 524.961L203.696 533.659ZM203.525 537.077L203.114 545.143L194.462 535.974L203.534 537.077H203.525ZM212.742 464.432L210.218 466.807L210.62 461.732L212.742 464.423V464.432ZM212.049 458.032L218.434 459.075L215.241 462.082L212.049 458.032ZM214.865 467.132L217.458 470.413L212.246 469.593L214.865 467.132ZM217.364 464.782L221.575 460.818L221.498 470.02L217.364 464.774V464.782ZM232.641 467.209L235.782 464.364L236.432 471.421L232.632 467.209H232.641ZM233.163 472.891L227.377 471.977L230.107 469.499L233.163 472.882V472.891ZM230.356 464.671L226.504 460.399L233.762 461.587L230.356 464.671ZM227.822 466.97L224.93 469.584L224.981 463.817L227.822 466.97ZM236.8 476.932L237.844 477.095L239.693 477.385L239.992 477.437L253.437 479.556C254.191 482.145 254.995 484.904 255.842 487.792L224.801 483.366L224.878 475.061L236.791 476.941L236.8 476.932ZM247.703 469.123L249.783 466.884C250.168 468.217 250.579 469.644 251.024 471.182C251.144 471.618 251.281 472.079 251.409 472.524L247.703 469.123ZM249.578 475.48L242.799 474.412L245.384 471.626L249.578 475.48ZM245.187 466.807L240.737 462.723L247.892 463.894L245.187 466.807ZM242.859 469.311L239.975 472.421L239.393 466.132L242.859 469.311ZM270.811 470.977L266.908 467.004L272.386 467.901L270.811 470.977ZM274.243 479.359L270.648 478.795L271.684 476.762L274.234 479.359H274.243ZM269.168 474.19L267.328 477.795L261.559 472.037L263.63 468.55L269.176 474.198L269.168 474.19ZM262.15 477.454L258.667 476.907L259.762 475.061L262.158 477.454H262.15ZM259.06 469.533L254.49 464.97L261.123 466.055L259.06 469.533ZM257.263 472.566L255.74 475.138C255.243 473.421 254.773 471.772 254.328 470.225C254.242 469.943 254.165 469.67 254.088 469.388L257.263 472.558V472.566ZM256.921 491.381C259.069 498.601 261.499 506.599 264.204 515.109L254.636 509.777L257.434 502.361L253.249 503.771L252.385 506.06L251.794 504.258L248.551 505.351L248.961 506.624L247.387 505.744L247.344 505.761C247.344 505.761 247.275 505.804 247.233 505.821C247.216 505.821 247.198 505.83 247.19 505.838C247.156 505.864 247.113 505.881 247.061 505.898C247.044 505.898 247.027 505.907 247.002 505.915C246.967 505.924 246.933 505.915 246.899 505.915L244.212 506.821L243.741 506.975C243.741 506.975 243.707 506.983 243.698 506.992C243.698 506.992 243.689 506.992 243.681 506.992H243.664C243.664 506.992 243.638 507.017 243.63 507.017C243.544 507.043 243.458 507.069 243.373 507.094L243.022 507.214L250.408 511.332L246.882 520.671L242.936 507.24L241.267 507.803C240.917 507.923 240.574 508.051 240.223 508.162C240.223 508.162 240.206 508.162 240.198 508.162L239.693 508.333L239.898 509.042L233.257 516.305L232.683 510.683L230.193 511.52L230.758 517.014L224.596 510.367L224.801 486.801L256.938 491.381H256.921ZM273.25 503.745L266.729 511.742C264.666 505.206 262.766 498.994 261.037 493.227L273.242 503.745H273.25ZM265.565 492.612L270.366 493.295C270.768 494.44 271.359 496.132 272.12 498.259L265.565 492.612ZM275.176 506.795C276.091 509.35 277.101 512.153 278.197 515.152L269.082 514.263L275.176 506.787V506.795ZM274.192 493.842L280.576 494.756L276.357 499.934C275.475 497.465 274.739 495.397 274.192 493.85V493.842ZM309.717 594.88C311.061 597.81 312.362 600.536 313.603 603.014V606.312L304.745 605.552V602.817L309.717 594.88ZM304.745 596.375V590.163L306.919 590.385L308.023 591.137L304.745 596.375ZM310.419 587.318L310.077 587.284C308.81 584.396 307.518 581.371 306.208 578.244L315.674 578.927L310.419 587.318ZM304.745 574.706C303.744 572.288 302.742 569.819 301.732 567.315L311.489 575.193L304.745 574.706ZM302.366 577.962C303.401 580.457 304.437 582.892 305.455 585.25L293.842 577.338L302.374 577.953L302.366 577.962ZM280.225 590.924L281.8 587.788L284.872 588.104V593.812L280.225 590.915V590.924ZM284.872 597.853V603.86L284.333 603.817L281.749 595.914L284.872 597.862V597.853ZM253.54 581.431L248.217 537.401L261.371 582.234L253.54 581.422V581.431ZM256.938 585.216V601.459L255.954 601.373L255.046 593.871L254.85 592.239L253.96 584.908L256.929 585.216H256.938ZM246.736 584.156L248.833 584.37V586.241L246.736 584.156ZM248.833 589.864V600.758L241.832 600.16L240.121 583.473L242.671 583.738L248.824 589.864H248.833ZM242.885 580.32L239.795 577.244L249.312 567.837L250.921 581.157L242.885 580.328V580.32ZM239.179 574.245L238.229 564.966L248.029 565.504L239.179 574.253V574.245ZM239.231 599.938H239.119V598.819L239.231 599.938ZM234.13 582.858L237.408 583.199V599.784L229.217 599.083V587.719L234.13 582.866V582.858ZM229.217 584.105V582.354L230.826 582.524L229.217 584.114V584.105ZM242.757 533.744L234.943 532.779L234.087 524.388L242.757 533.744ZM233.651 520.15L233.608 519.723L240.745 511.913L243.826 522.397L245.042 532.428L233.659 520.142L233.651 520.15ZM243.441 536.419L236.124 544.331L235.208 535.402L243.441 536.419ZM245.684 537.777L248.499 561.01L236.654 547.552L245.692 537.777H245.684ZM236.586 574.057L226.847 564.359L235.645 564.837L236.586 574.057ZM236.877 551.705L246.711 562.872L237.972 562.394L236.877 551.705ZM251.349 584.652L251.914 589.326L250.545 587.967V584.575L251.349 584.661V584.652ZM250.545 591.581L252.41 593.436L253.343 601.16L250.545 600.921V591.581ZM254.413 523.269L256.476 529.566L249.834 524.67L254.422 523.269H254.413ZM250.451 520.911L252.162 516.382L253.352 520.022L250.451 520.911ZM263.451 550.91L266.181 559.266L256.33 552.892V552.858L263.451 550.91ZM256.587 549.244L259.968 540.272L262.381 547.663L256.578 549.244H256.587ZM265.693 546.758L263.049 538.666L271.778 545.1L265.693 546.758ZM272.728 548.381L269.442 558.216L266.763 550.013L272.728 548.381ZM267.456 564.162L263.297 576.603L257.811 557.917L267.456 564.162ZM269.407 569.118L271.898 576.748L266.472 577.885L269.399 569.118H269.407ZM271.538 562.736L275.895 549.705C278.385 556.635 281.021 563.658 283.785 570.665L271.538 562.736ZM262.372 533.915L266.626 522.62C268.654 528.831 270.811 535.265 273.105 541.827L262.372 533.915ZM260.207 529.959L257.691 522.269L263.81 520.398L260.207 529.959ZM256.63 519.022L254.952 513.879L261.508 517.536L256.638 519.031L256.63 519.022ZM258.256 535.128L254.242 545.766L249.15 528.421L258.247 535.128H258.256ZM256.039 549.398L255.363 549.586L255.218 549.09L256.039 549.398ZM258.667 585.412L262.424 585.805L267.285 602.365L258.667 601.621V585.412ZM266.104 586.181H266.147L267.721 587.164V591.684L266.104 586.181ZM267.285 582.866L265.299 581.627L272.968 580.021L274.132 583.575L267.285 582.866ZM275.287 587.13L275.587 588.044L273.892 586.985L275.287 587.13ZM269.424 588.232L275.775 592.188L270.777 602.125L269.424 597.511V588.224V588.232ZM276.228 598.913V603.134L274.192 602.963L276.228 598.913ZM275.27 576.048L272.446 567.401L283.221 574.382L275.27 576.048ZM282.947 577.928L279.806 584.165L277.855 583.96L276.331 579.312L282.947 577.928ZM277.94 595.503L277.991 595.401L280.645 603.51L277.94 603.279V595.503ZM283.452 584.541L286.73 578.021C287.705 580.414 288.707 582.806 289.708 585.19L283.452 584.541ZM286.601 598.93L295.51 604.484V604.783L286.601 604.022V598.938V598.93ZM286.601 594.897V588.292L291.248 588.77C292.643 591.992 294.064 595.196 295.51 598.366V600.442L286.601 594.888V594.897ZM295.16 589.181L295.51 589.215V589.984C295.391 589.719 295.279 589.445 295.16 589.181ZM293.602 585.583C292.755 583.601 291.916 581.61 291.086 579.611L300.988 586.352L293.602 585.583ZM297.222 589.394L303.05 590.001V599.126L301.09 602.262C299.781 599.485 298.489 596.683 297.222 593.854V589.403V589.394ZM289.211 573.587L296.623 563.804C298.052 567.409 299.49 570.964 300.919 574.433L289.211 573.587ZM287.354 570.374C284.564 563.317 281.903 556.25 279.378 549.27L294.252 561.274L287.354 570.374ZM290.709 548.646C291.711 551.243 292.72 553.849 293.739 556.455L283.452 548.15L290.718 548.646H290.709ZM290.547 538.538L299.276 545.809L293.148 545.39C292.267 543.092 291.402 540.802 290.547 538.538ZM278.804 544.408L278.317 544.015L285.403 534.65C286.687 538.076 288.013 541.588 289.366 545.134L278.813 544.416L278.804 544.408ZM276.4 540.87C274.063 534.18 271.855 527.609 269.793 521.269L282.947 532.215L276.408 540.87H276.4ZM282.784 527.635L271.119 517.929L279.515 518.74C280.55 521.577 281.646 524.551 282.784 527.635ZM279.754 509.359L287.568 516.092L282.005 515.553C281.218 513.392 280.465 511.315 279.754 509.359ZM233.514 543.998L224.818 534.12L232.598 535.077L233.514 543.989V543.998ZM229.953 519.937L224.459 525.943L224.562 514.118L229.953 519.937ZM231.288 522.269L232.333 532.463L224.407 531.48L224.425 529.771L231.288 522.261V522.269ZM233.188 547.509L224.176 557.259L224.348 537.47L233.188 547.509ZM234.147 550.252L235.379 562.257L224.134 561.642V561.078L234.147 550.252ZM236.158 577.253L233.976 579.414L223.997 578.38L224.108 565.256L236.158 577.261V577.253ZM227.506 582.183V585.805L223.894 589.377L223.962 581.815L227.506 582.183ZM227.506 589.411V598.938L223.808 598.622L223.86 593.008L227.506 589.403V589.411ZM321.134 600.075V606.979L319.474 606.833C318.19 604.526 316.795 601.801 315.323 598.742V596.11L321.134 600.066V600.075ZM315.323 591.983V591.274L321.134 591.872V595.931L315.323 591.975V591.983ZM322.846 607.132V601.245L331.336 607.021V607.859L322.846 607.132ZM340.382 593.871L347.785 594.64V609.277L340.382 608.645V593.88V593.871ZM333.047 593.111L338.67 593.692V607.953C336.753 604.766 334.879 601.596 333.047 598.426V593.111ZM331.336 592.932V595.461C330.822 594.564 330.317 593.666 329.804 592.769L331.336 592.932ZM331.336 601.707V602.886L322.846 597.11V592.06L326.012 592.385C327.75 595.486 329.53 598.596 331.336 601.707ZM320.621 582.576C321.725 584.626 322.846 586.677 323.976 588.736L314.219 587.728L318.507 580.875L320.621 582.584V582.576ZM316.564 574.903L299.148 560.839C299.114 560.753 299.079 560.676 299.045 560.591L305.378 552.226C308.913 559.822 312.636 567.367 316.555 574.894L316.564 574.903ZM297.582 556.865C296.546 554.217 295.51 551.559 294.492 548.902L303.17 549.492L297.59 556.857L297.582 556.865ZM301.15 542.93L288.099 532.07C288.013 531.839 287.928 531.617 287.842 531.395L293.26 524.226C295.776 530.523 298.403 536.752 301.15 542.93ZM291.788 520.5L286.43 527.592C285.343 524.67 284.299 521.825 283.298 519.116L291.556 519.919C291.633 520.116 291.711 520.312 291.788 520.509V520.5ZM288.766 512.622L278 503.352L283.178 496.995C284.975 502.267 286.832 507.47 288.758 512.622H288.766ZM281.321 491.432L259.634 488.382L259.24 487.186C258.521 484.734 257.828 482.384 257.177 480.145L266.266 481.581L266.797 481.666L278.796 483.554C279.626 486.203 280.473 488.826 281.329 491.432H281.321ZM276.81 477.103L273.344 473.566L274.885 470.558C275.518 472.754 276.16 474.933 276.81 477.103ZM264.358 429.332C265.479 434.321 266.626 439.226 267.816 444.062L263.81 443.276L257.999 436.927L264.101 429.28L264.358 429.332ZM234.652 429.819L228.644 422.223L238.905 424.265L234.66 429.819H234.652ZM236.706 437.936L233.265 437.261L234.695 435.398L236.706 437.944V437.936ZM210.979 426.939L203.919 417.301L217.766 420.061L210.979 426.939ZM211.099 432.886L210.106 432.689L210.594 432.194L211.099 432.877V432.886ZM241.327 394.641L246.711 387.259L254.644 397.204L241.327 394.641ZM255.911 400.93L250.896 407.859L242.825 398.418L255.911 400.93ZM236.073 387.455L231.973 379.518L234.292 375.049L236.081 387.455H236.073ZM234.344 351.432L240.121 358.874L236.15 363.958L234.344 351.423V351.432ZM230.047 375.792L226.496 368.914L232.324 370.042L232.615 370.836L230.047 375.792ZM226.342 340.751L227.112 335.821L228.413 341.153L226.342 340.751ZM229.174 344.784L228.079 348.322L226.616 344.289L229.174 344.784ZM226.41 353.748L225.948 355.243L225.974 352.534L226.41 353.739V353.748ZM228.344 359.088L230.963 366.299L226.393 365.419L228.344 359.088ZM230.022 353.662L230.835 351.039L231.99 359.088L230.022 353.662ZM232.598 339.316L230.672 325.935L236.843 334.087L232.598 339.325V339.316ZM229.157 315.434L227.112 301.251L233.959 309.821L229.157 315.443V315.434ZM226.282 291.459L225.76 276.566L232.144 285.486L226.282 291.459ZM225.777 374.972L228.122 379.509L225.7 384.191L225.777 374.972ZM225.837 391.36L230.047 383.226L235.345 393.479L225.631 391.608V391.249L225.837 391.352V391.36ZM235.55 396.999L231.708 402.861L226.795 395.316L235.55 396.999ZM229.662 405.98L225.452 412.405L225.563 399.682L229.662 405.98ZM231.699 409.107L239.359 420.864L225.768 418.155L231.699 409.107ZM233.745 405.98L237.844 399.734L240.163 415.823L233.745 405.98ZM239.992 390.642L237.913 376.219L244.494 384.465L239.992 390.642ZM246.591 381.602L238.272 371.178L251.692 373.776L252.008 374.177L246.591 381.602ZM237.656 367.572L242.286 361.643L248.516 369.674L237.656 367.572ZM234.284 345.75L247.661 348.339L247.986 348.775L242.286 356.072L234.275 345.75H234.284ZM234.549 342.324L238.965 336.872L244.562 344.272L234.541 342.332L234.549 342.324ZM231.656 321.544L244.905 324.124L239.068 331.327L231.656 321.544ZM231.434 318.023L236.132 312.521L242.2 320.117L231.434 318.023ZM228.558 297.559L241.533 300.926L236.218 307.146L228.558 297.551V297.559ZM228.55 294.022L234.164 288.297L240.48 297.115L228.55 294.022ZM229.628 276.087L239.308 278.181L234.575 283L229.628 276.087ZM226.667 271.952L226.419 271.61L232.521 265.902L238.726 274.558L226.667 271.952ZM228.712 254.718L237.108 256.922L233.026 260.742L228.712 254.718ZM225.922 250.454L230.955 245.584L236.398 253.205L225.922 250.454ZM226.941 234.057L235.396 236.527L231.442 240.355L226.941 234.057ZM224.861 229.888L229.542 225.427L234.566 232.724L224.87 229.888H224.861ZM226.701 215.277L233.419 216.994L230.073 220.181L226.693 215.277H226.701ZM224.844 211.278L228.738 207.672L232.735 213.294L224.844 211.278ZM225.469 197.18L232.683 199.358L229.269 202.52L225.469 197.18ZM224.878 193.429L227.565 190.908L230.484 195.12L224.887 193.429H224.878ZM225.246 181.569L230.698 183.286L228.113 185.713L225.246 181.577V181.569ZM223.629 177.476L226.496 174.93L229.654 179.373L223.629 177.476ZM222.405 148.015L224.698 146.084L227.223 149.613L222.405 148.015ZM228.25 153.552L226.299 155.209L224.108 152.176L228.25 153.543V153.552ZM222.251 129.969L220.616 131.319L220.479 127.457L222.251 129.969ZM220.171 118.656L220.068 115.828L221.386 117.631L220.171 118.656ZM223.415 120.399L225.152 122.783L221.848 121.707L223.406 120.399H223.415ZM222.927 113.931L225.126 114.504L224.022 115.427L222.927 113.931ZM222.139 134.498L224.228 132.772L226.35 135.779L222.148 134.498H222.139ZM227.103 139.582L225.323 141.077L223.457 138.471L227.103 139.582ZM222.704 143.29L221.095 144.648L220.958 140.855L222.704 143.29ZM224.895 127.773L223.543 125.851L226.179 126.714L224.895 127.782V127.773ZM220.813 233.741L221.181 244.208L216.577 237.783L220.813 233.741ZM221.609 159.208L221.438 154.312L223.697 157.431L221.609 159.208ZM221.926 265.338L217.261 258.819L221.549 254.666L221.926 265.33V265.338ZM226.872 130.576L228.199 129.474C228.284 130.584 228.361 131.704 228.447 132.814L226.872 130.576ZM226.042 118.195L227.292 117.144C227.369 118.169 227.437 119.186 227.514 120.203L226.042 118.186V118.195ZM219.854 109.591L219.812 108.454C222.139 109.07 224.467 109.685 226.795 110.3C226.821 110.676 226.847 111.052 226.881 111.428L219.863 109.591H219.854ZM220.171 215.601L220.505 225.06L216.303 219.181L220.171 215.601ZM215.387 140.103L217.449 138.394L217.621 143.187L215.387 140.103ZM217.92 151.792L218.117 157.252L215.609 153.731L217.92 151.783V151.792ZM215.361 127.158L217.004 125.782L217.141 129.644L215.361 127.158ZM215.686 114.7L216.585 114.042L216.654 116.076L215.686 114.7ZM210.337 107.104L209.336 105.686C211.681 106.31 214.018 106.925 216.363 107.54L216.405 108.694L210.346 107.104H210.337ZM215.07 135.916L213.376 137.326L211.596 134.857L215.079 135.916H215.07ZM214.103 111.616L213.718 111.898L213.384 111.428L214.103 111.616ZM214.822 119.417L210.937 118.152L212.914 116.708L214.822 119.417ZM214.933 123.048L213.359 124.364L211.647 121.972L214.933 123.04V123.048ZM212.725 129.363L214.805 132.268L210.74 131.029L212.725 129.363ZM212.742 142.29L215.139 145.605L210.569 144.093L212.742 142.29ZM215.524 149.331L213.615 150.937L211.527 148.006L215.524 149.331ZM212.982 155.944L215.524 159.524L210.654 157.901L212.973 155.944H212.982ZM216.594 163.48L214.163 165.557L211.561 161.806L216.594 163.48ZM218.434 166.403L218.631 172.008L216.114 168.376L218.434 166.403ZM213.496 170.606L216.756 175.306L210.346 173.289L213.496 170.606ZM216.842 178.92L214.172 181.287L211.228 177.151L216.842 178.92ZM218.973 181.603L219.213 188.37L216.166 184.09L218.973 181.603ZM216.893 191.011L210.534 189.088L213.598 186.371L216.893 191.011ZM218.22 194.984L214.882 198.111L211.287 192.89L218.22 194.984ZM219.563 198.41L219.803 205.271L216.842 200.965L219.563 198.41ZM218.708 209.706L209.918 207.459L214.317 203.332L218.708 209.706ZM217.912 213.029L214.309 216.37L210.586 211.158L217.912 213.029ZM218.408 227.999L209.559 225.41L213.778 221.506L218.408 227.991V227.999ZM218.203 231.503L214.565 234.972L210.457 229.238L218.203 231.503ZM220.411 249.002L208.172 245.789L214.077 240.158L220.411 248.993V249.002ZM219.178 252.214L215.259 256.008L211.005 250.07L219.178 252.214ZM221.686 270.875L207.89 267.893L214.779 261.229L221.686 270.875ZM219.058 273.806L214.471 278.104L210.046 271.858L219.067 273.806H219.058ZM222.285 275.472L222.79 289.827L216.465 280.915L222.285 275.472ZM222.139 174.229L221.943 168.522L224.51 172.127L222.148 174.229H222.139ZM224.399 166.086L229.431 167.761L227.078 169.846L224.399 166.086ZM223.423 162.156L225.708 160.216L228.284 163.779L223.423 162.165V162.156ZM227.326 143.862L229.157 142.316C229.269 143.854 229.388 145.375 229.508 146.904L227.326 143.862ZM227.797 107.907C225.101 107.198 222.413 106.481 219.717 105.771L218.014 105.319C214.985 104.515 211.964 103.721 208.942 102.918V102.26C209.319 100.764 209.696 99.2605 210.081 97.7653L229.928 102.935C229.217 104.592 228.515 106.25 227.805 107.907H227.797ZM210.954 113.914L208.925 115.392C208.925 113.948 208.925 112.504 208.925 111.052L210.945 113.914H210.954ZM210.731 126.569L208.891 128.106C208.891 126.748 208.9 125.381 208.908 124.014L210.731 126.56V126.569ZM210.731 139.505L208.84 141.077C208.84 139.693 208.848 138.3 208.857 136.916L210.731 139.505ZM210.988 153.142L208.754 155.021C208.763 153.372 208.78 151.715 208.788 150.057L210.988 153.142ZM211.536 167.77L208.643 170.239C208.66 168.052 208.677 165.864 208.694 163.668L211.536 167.77ZM211.596 183.56L208.48 186.32C208.506 183.987 208.532 181.637 208.557 179.288L211.596 183.56ZM212.349 200.469L208.249 204.306C208.292 201.119 208.335 197.923 208.378 194.702L212.349 200.469ZM211.767 218.694L207.975 222.198C208.027 219.335 208.07 216.464 208.112 213.576L211.758 218.686L211.767 218.694ZM212.058 237.338L207.616 241.568C207.684 238.201 207.753 234.818 207.813 231.417L212.058 237.338ZM212.76 258.4L207.12 263.86C207.222 259.588 207.325 255.282 207.419 250.941L212.76 258.4ZM211.946 280.445L206.546 285.503C206.666 281.47 206.777 277.403 206.88 273.31L211.946 280.454V280.445ZM213.941 283.265L219.991 291.801L208.112 288.716L213.941 283.265ZM221.797 295.799L215.25 301.746L208.729 292.407L221.797 295.799ZM221.018 315.99L207.539 313.367L214.668 306.89L221.018 315.99ZM220.556 319.382L213.641 325.765L207.607 316.861L220.556 319.382ZM218.631 339.239L206.597 336.906L213.025 330.977L218.622 339.239H218.631ZM221.155 343.212L213.727 350.125L206.837 340.435L221.155 343.212ZM219.444 364.052L206.469 361.54L213.205 355.277L219.452 364.052H219.444ZM219.914 367.624L212.537 374.664L205.69 364.872L219.914 367.624ZM219.375 390.403L204.09 387.464L212.023 379.885L219.375 390.403ZM218.485 393.71L211.63 400.195L204.603 391.044L218.485 393.71ZM220.248 417.053L202.515 413.524L211.219 405.296L220.248 417.062V417.053ZM221.78 420.838L221.934 420.873L221.814 434.979L216.046 433.843L213.016 429.716L221.78 420.847V420.838ZM213.718 402.921L222.165 394.94L222.003 413.712L213.727 402.929L213.718 402.921ZM214.523 377.492L222.379 369.99L222.216 388.498L214.523 377.492ZM215.729 352.919L222.593 346.536L222.456 362.36L215.729 352.91V352.919ZM215.584 328.618L222.816 321.954L222.662 339.068L215.584 328.618ZM217.227 304.566L223.004 299.32L222.884 312.683L217.218 304.566H217.227ZM222.721 190.746L222.465 183.534L225.597 188.054L222.721 190.746ZM226.735 204.844L223.329 207.997L223.038 199.64L226.744 204.844H226.735ZM227.565 222.557L223.962 225.991L223.637 216.857L227.565 222.557ZM228.943 242.738L224.698 246.84L224.322 236.27L228.935 242.738H228.943ZM230.501 263.074L225.443 267.816L225.007 255.401L230.51 263.074H230.501ZM225.34 423.538L232.495 432.587L229.517 436.483L225.229 435.637L225.332 423.538H225.34ZM241.661 426.247L243.535 439.252L241.867 438.927L236.834 432.561L241.661 426.255V426.247ZM241.661 402.288L248.824 410.671L243.861 417.523L241.67 402.288H241.661ZM251.11 413.345L261.234 425.196L244.888 421.941L251.11 413.345ZM248.071 426.059L260.31 428.494L255.646 434.339L248.071 426.059ZM253.489 437.047L250.613 440.644L247.087 439.952L245.393 428.212L253.48 437.047H253.489ZM255.825 439.602L258.136 442.131L254.396 441.396L255.825 439.61V439.602ZM262.655 421.599L253.172 410.5L258.821 402.699C260.053 409.132 261.337 415.43 262.655 421.599ZM254.225 377.031C255.252 383.183 256.313 389.215 257.4 395.137L248.799 384.354L254.182 376.971L254.225 377.031ZM250.279 351.808C251.187 357.977 252.111 364.027 253.061 369.956L244.443 358.849L250.117 351.586L250.279 351.799V351.808ZM249.27 344.81L241.173 334.121L246.865 327.098C247.643 333.113 248.448 339.017 249.27 344.81ZM245.855 319.211L238.383 309.855L243.929 303.361C244.562 308.727 245.204 314.016 245.855 319.22V319.211ZM242.919 294.663L236.577 285.802L241.396 280.889C241.901 285.537 242.406 290.134 242.919 294.663ZM240.352 270.952L235.028 263.518L239.196 259.614C239.581 263.433 239.958 267.21 240.352 270.952ZM238.238 249.882L233.428 243.149L237.236 239.457C237.562 242.961 237.895 246.438 238.229 249.882H238.238ZM236.295 229.213L232.033 223.018L235.448 219.763C235.73 222.941 236.013 226.085 236.295 229.213ZM234.592 209.996L231.254 205.305L233.976 202.793C234.181 205.211 234.387 207.612 234.592 209.996ZM233.146 192.959L230.073 188.524L232.581 186.166C232.769 188.439 232.957 190.703 233.137 192.95L233.146 192.959ZM231.802 176.476L229.063 172.623L231.34 170.606C231.494 172.572 231.648 174.528 231.802 176.476ZM230.219 156.329C230.338 157.935 230.467 159.533 230.587 161.122L228.302 157.961L230.219 156.329ZM230.929 100.525L210.697 95.2532C211.125 93.5443 211.553 91.844 211.989 90.1351C219.007 91.938 226.034 93.7494 233.051 95.5523C232.341 97.2099 231.639 98.8675 230.929 100.525ZM203.876 81.7188L199.066 82.6844C199.066 82.6844 193.341 87.4094 190.482 89.7762C192.647 81.5821 196.661 74.738 204.355 72.1576C204.355 72.1576 207.214 71.081 210.979 71.081C214.745 71.081 217.74 72.226 217.74 72.226C224.596 74.4732 230.107 79.7963 232.786 86.6746L221.643 83.5046C218.494 82.6075 216.114 81.8214 212.725 81.4625L203.867 81.7274L203.876 81.7188ZM206.255 294.825L212.691 304.045L205.75 310.35C205.93 305.224 206.093 300.054 206.255 294.834V294.825ZM205.416 319.715L211.091 328.089L204.877 333.822C205.066 329.157 205.245 324.466 205.416 319.715ZM204.492 343.024L211.193 352.44L203.756 359.353C204.013 353.97 204.252 348.527 204.484 343.024H204.492ZM203.371 367.504L210.038 377.031L202.507 384.225C202.806 378.714 203.097 373.143 203.371 367.504ZM202.002 393.248L209.131 402.536L200.983 410.243C201.334 404.647 201.676 398.982 202.002 393.257V393.248ZM200.461 418.326L208.54 429.357L206.075 431.852L199.622 430.579C199.905 426.529 200.187 422.445 200.453 418.326H200.461ZM198.63 444.259L198.938 439.354L279.267 453.999L273.438 465.449L197.945 453.102C198.176 450.171 198.407 447.224 198.63 444.259ZM202.969 460.869L199.554 455.964L206.854 457.161L202.969 460.869ZM203.953 468.268L200.709 467.756L202.447 466.098L203.953 468.268ZM207.197 461.561L206.811 466.38L204.946 463.706L207.197 461.561ZM197.474 458.955L200.47 463.253L196.832 466.73C197.055 464.15 197.269 461.561 197.483 458.955H197.474ZM196.387 471.883L196.516 470.533L206.358 472.105L207.197 472.242L220.573 474.352L221.463 474.514L221.429 482.794L219.931 482.649L197.705 479.479L195.771 479.163C195.934 477.317 196.216 473.762 196.379 471.9L196.387 471.883ZM195.429 482.589L196.002 482.674L205.682 493.389L193.495 502.574C194.162 496.012 194.804 489.356 195.429 482.589ZM192.57 511.469C192.699 510.281 192.818 509.094 192.947 507.897L204.389 520.406V520.432L190.362 531.232C191.115 524.756 191.86 518.185 192.57 511.478V511.469ZM189.797 535.983L202.875 549.833L187.119 561.377L186.639 560.864C187.726 552.747 188.779 544.459 189.797 535.983ZM185.878 566.529L186.545 566.042L186.819 566.068L195.523 575.39L184.791 574.279C185.159 571.716 185.518 569.127 185.878 566.529ZM184.303 577.663L187.444 577.987V588.958L182.078 592.573C182.831 587.66 183.575 582.687 184.303 577.663ZM178.235 577.03L181.025 577.321C180.178 583.208 179.313 588.993 178.432 594.683L178.235 594.666V577.03ZM175.573 631.527L178.749 627.528L180.357 634.287L175.145 633.902C175.291 633.107 175.428 632.321 175.573 631.527ZM174.529 637.286L212.905 640.148L211.827 646.454L173.254 644.138C173.682 641.865 174.11 639.576 174.529 637.286ZM160.596 718.603L179.562 704.889L177.054 718.603H160.596ZM176.429 722.021L173.725 736.802L159.364 722.021H176.429ZM183.19 685.049L181.196 695.943L170.823 684.733L183.182 685.04L183.19 685.049ZM169.095 681.281L185.963 669.9L183.815 681.648L169.095 681.281ZM179.912 722.029H196.088L177.473 735.35L179.912 722.029ZM180.537 718.611L183.336 703.3L197.5 718.611H180.537ZM186.656 685.143L200.555 685.493L184.457 697.131L186.648 685.143H186.656ZM175.462 647.701L189.866 648.564L187.709 660.347L175.462 647.701ZM187.273 681.742L189.874 667.507L204.064 682.161L187.273 681.742ZM210.671 653.238L208.746 664.525L194.907 663.876L210.68 653.238H210.671ZM190.79 662.526L193.306 648.778L209.721 649.76L190.799 662.526H190.79ZM172.27 649.325L185.946 663.457L169.642 662.688C170.532 658.262 171.405 653.811 172.27 649.325ZM168.966 666.08L184.448 666.807L166.279 679.059C167.186 674.744 168.085 670.421 168.966 666.072V666.08ZM165.098 684.613L166.056 684.639L179.476 699.147L162.034 698.617C163.07 693.961 164.088 689.295 165.098 684.613ZM161.281 702.01L177.063 702.488L158.02 716.253C159.124 711.502 160.203 706.76 161.272 702.001L161.281 702.01ZM156.274 723.764L169.292 737.161H153.073C154.152 732.693 155.222 728.224 156.274 723.764ZM152.243 740.579H170.182L148.409 756.164C149.71 750.952 150.985 745.757 152.243 740.579ZM169.754 758.548H150.951L172.586 743.066L169.754 758.548ZM173.237 758.548L175.907 743.963L190.08 758.548H173.237ZM193.007 756.651L177.388 740.579H195.754L193.007 756.651ZM196.336 737.161H180.837L198.501 724.516L196.345 737.161H196.336ZM199.922 716.193L187.538 702.804L202.13 703.249L199.922 716.193ZM202.712 699.848L187.204 699.378L204.988 686.519L202.712 699.856V699.848ZM194.419 667.277L208.172 667.926L206.204 679.444L194.419 667.277ZM313.449 662.064C290.786 650.905 268.928 647.864 250.237 653.264C231.092 658.792 216.286 672.813 207.325 693.175L211.074 671.258C220.907 657.023 236.492 648.376 256.245 646.257C279.618 643.754 306.234 650.888 329.521 665.115V665.157H329.598C337.84 670.199 345.663 676.129 352.775 682.827L367.093 702.411C349.368 684.434 331.396 670.908 313.44 662.064H313.449ZM368.351 698.327L385.091 708.05L375.429 708.016L368.351 698.336V698.327ZM385.562 721.867L377.936 711.434L388.429 711.477L385.562 721.867ZM391.595 712.87L399.88 724.029H388.514L391.595 712.87ZM392.46 731.308L410.8 741.955L400.479 742.279L392.46 731.308ZM410.638 756.173L402.927 745.62L412.983 745.304L410.638 756.164V756.173ZM413.625 758.548L416.295 746.15L425.504 758.548H413.625ZM429.766 758.548L422.482 748.739L439.385 758.548H429.766Z" fill="#146EF5"/>
</g>
<defs>
<clipPath id="clip0_62_7">
<rect width="449.58" height="762" fill="white"/>
</clipPath>
</defs>
</svg>
