<svg width="32" height="32" viewBox="0 0 32 32" fill="none" xmlns="http://www.w3.org/2000/svg">
<rect width="32" height="32" fill="#111111"/>
<rect x="4.21261" y="11.2126" width="22.9765" height="8.9765" rx="1.48825" fill="#FF6B00" fill-opacity="0.12"/>
<rect x="4.21261" y="11.2126" width="22.9765" height="8.9765" rx="1.48825" stroke="#FF6B00" stroke-width="0.425214"/>
<path d="M7.50797 17.7009L6.46154 14.0135H6.93243L7.75712 17.0158L8.59426 14.0135H9.0801L9.9571 16.9859L10.7618 14.0135H11.2178L10.1739 17.7009H9.7229L8.82596 14.7286L7.96391 17.7009H7.50797ZM12.6703 17.7009L11.6239 14.0135H12.0948L12.9195 17.0158L13.7566 14.0135H14.2425L15.1195 16.9859L15.9242 14.0135H16.3802L15.3362 17.7009H14.8853L13.9883 14.7286L13.1263 17.7009H12.6703ZM16.9034 17.7009V14.0135H18.2189C18.6059 14.0135 18.9115 14.1223 19.1357 14.3399C19.3616 14.5575 19.4746 14.8374 19.4746 15.1795C19.4746 15.5217 19.3625 15.8024 19.1382 16.0217C18.914 16.2393 18.6092 16.3481 18.2239 16.3481H17.3568V17.7009H16.9034ZM17.3568 15.9469H18.2089C18.463 15.9469 18.6599 15.8763 18.7994 15.7351C18.9389 15.594 19.0087 15.4088 19.0087 15.1795C19.0087 14.952 18.9381 14.7676 18.7969 14.6264C18.6557 14.4852 18.4581 14.4147 18.2039 14.4147H17.3568V15.9469ZM20.0377 17.7009V17.4194L21.4503 15.8797C21.5384 15.7833 21.6048 15.7077 21.6496 15.6529C21.6945 15.5981 21.7385 15.5358 21.7817 15.4661C21.8249 15.3963 21.8539 15.3274 21.8689 15.2593C21.8855 15.1912 21.8938 15.1139 21.8938 15.0276C21.8955 14.8266 21.8332 14.6655 21.707 14.5442C21.5807 14.423 21.4154 14.3607 21.2111 14.3574C20.9985 14.3607 20.8275 14.4288 20.6979 14.5617C20.57 14.6945 20.5002 14.8772 20.4886 15.1098L20.0302 15.1048C20.0418 14.751 20.1556 14.4703 20.3715 14.2627C20.5891 14.0551 20.8723 13.9512 21.2211 13.9512C21.5633 13.9512 21.8373 14.0526 22.0433 14.2552C22.2493 14.4562 22.3522 14.7161 22.3522 15.035C22.3522 15.1878 22.3282 15.3282 22.28 15.4561C22.2335 15.584 22.1695 15.7028 22.0881 15.8124C22.0068 15.9203 21.8847 16.0615 21.7219 16.2359L20.7278 17.2998L22.3996 17.2948V17.7009H20.0377ZM22.6811 16.8339V16.5L24.3853 14.0135H24.8985V16.4353H25.4317V16.8339H24.8985V17.7009H24.4551V16.8339H22.6811ZM23.1769 16.4353H24.4551V14.5666L23.1769 16.4353Z" fill="#FF6B00"/>
</svg>
