<svg width="256" height="256" viewBox="0 0 256 256" fill="none" xmlns="http://www.w3.org/2000/svg">
<rect width="256" height="256" fill="#111111"/>
<rect x="33.7009" y="89.7009" width="183.812" height="71.812" rx="11.906" fill="#FF6B00" fill-opacity="0.12"/>
<rect x="33.7009" y="89.7009" width="183.812" height="71.812" rx="11.906" stroke="#FF6B00" stroke-width="3.40171"/>
<path d="M60.0641 140.607L51.6927 111.108H55.4598L62.0573 135.126L68.7544 111.108H72.6411L79.6572 134.886L86.0952 111.108H89.7427L81.3912 140.607H77.7836L70.6081 116.828L63.7116 140.607H60.0641ZM101.363 140.607L92.9916 111.108H96.7587L103.356 135.126L110.053 111.108H113.94L120.956 134.886L127.394 111.108H131.042L122.69 140.607H119.082L111.907 116.828L105.011 140.607H101.363ZM135.227 140.607V111.108H145.751C148.847 111.108 151.292 111.978 153.086 113.719C154.893 115.46 155.797 117.699 155.797 120.436C155.797 123.173 154.9 125.419 153.106 127.173C151.312 128.914 148.874 129.784 145.791 129.784H138.855V140.607H135.227ZM138.855 126.575H145.672C147.705 126.575 149.279 126.01 150.395 124.881C151.512 123.751 152.07 122.27 152.07 120.436C152.07 118.615 151.505 117.14 150.376 116.011C149.246 114.882 147.665 114.317 145.632 114.317H138.855V126.575ZM160.302 140.607V138.355L171.603 126.037C172.307 125.266 172.839 124.661 173.198 124.223C173.556 123.784 173.908 123.286 174.254 122.728C174.599 122.17 174.832 121.618 174.952 121.074C175.084 120.529 175.151 119.911 175.151 119.22C175.164 117.612 174.666 116.323 173.656 115.353C172.646 114.383 171.324 113.885 169.69 113.858C167.989 113.885 166.62 114.43 165.584 115.493C164.56 116.556 164.002 118.017 163.909 119.878L160.242 119.838C160.335 117.008 161.245 114.762 162.972 113.101C164.713 111.44 166.979 110.609 169.769 110.609C172.507 110.609 174.699 111.42 176.347 113.041C177.994 114.649 178.818 116.729 178.818 119.28C178.818 120.502 178.626 121.625 178.24 122.648C177.868 123.671 177.357 124.622 176.706 125.499C176.054 126.362 175.078 127.492 173.776 128.887L165.823 137.398L179.197 137.358V140.607H160.302ZM181.449 133.671V131L195.083 111.108H199.189V130.482H203.454V133.671H199.189V140.607H195.641V133.671H181.449ZM185.416 130.482H195.641V115.533L185.416 130.482Z" fill="#FF6B00"/>
</svg>
