<svg width="252" height="240" viewBox="0 0 252 240" fill="none" xmlns="http://www.w3.org/2000/svg">
<rect width="252" height="240" rx="16" fill="#FF381D"/>
<g clip-path="url(#clip0_1_7)">
<path d="M112.093 166.987L112.144 171.786C112.196 173.798 110.287 175.295 108.326 174.831L82.9358 168.741C81.9037 168.483 81.078 167.761 80.7167 166.78L74.2661 147.841C73.9048 146.757 75.0402 145.828 76.0207 146.345L110.957 165.232C111.68 165.542 112.093 166.213 112.093 166.987Z" fill="#050505"/>
<path d="M155.286 91.7977C156.834 91.7977 157.815 93.4491 157.144 94.7908L145.688 117.291C145.017 118.581 146.771 119.768 147.7 118.684L194.919 65.7371C195.332 65.2726 195.848 65.0662 196.467 65.0662H209.936C211.381 65.0662 212.413 66.5628 211.846 67.9045L186.404 131.792C185.682 133.598 184.34 135.094 182.689 136.023L129.896 164.561C128.658 165.232 127.368 165.542 126.026 165.542C124.684 165.542 123.343 165.18 122.156 164.561L69.3636 135.972C67.6606 135.043 66.3188 133.546 65.648 131.74L40.155 67.9045C39.5873 66.5628 40.6195 65.0662 42.0644 65.0662H55.5334C56.101 65.0662 56.6687 65.3242 57.0815 65.7371L104.3 118.736C105.281 119.819 106.984 118.632 106.313 117.342L94.8565 94.8424C94.1341 93.4491 95.1662 91.8493 96.7143 91.8493H155.286V91.7977Z" fill="#050505"/>
<path d="M139.908 166.832L139.856 171.631C139.804 173.644 141.714 175.14 143.675 174.676L169.065 168.586C170.097 168.328 170.922 167.606 171.284 166.625L177.734 147.686C178.096 146.603 176.96 145.674 175.98 146.19L141.043 165.077C140.321 165.438 139.908 166.109 139.908 166.832Z" fill="#050505"/>
</g>
<defs>
<clipPath id="clip0_1_7">
<rect width="172" height="109.867" fill="white" transform="translate(39.9999 65.0663)"/>
</clipPath>
</defs>
</svg>
