<?xml version="1.0" encoding="utf-8"?>
<!-- Generator: Adobe Illustrator 26.0.1, SVG Export Plug-In . SVG Version: 6.00 Build 0)  -->
<svg version="1.1" id="Слой_1" xmlns="http://www.w3.org/2000/svg" xmlns:xlink="http://www.w3.org/1999/xlink" x="0px" y="0px"
	 viewBox="0 0 40 40" style="enable-background:new 0 0 40 40;" xml:space="preserve">
<style type="text/css">
	.st0{fill:#010202;}
	.st1{fill:#1B1736;}
	.st2{fill:#32306B;}
	.st3{fill:#4B4D9B;}
	.st4{fill:#231F41;}
	.st5{fill:#393673;}
	.st6{fill:#4F519F;}
	.st7{fill:#6C73B5;}
</style>
<rect x="-1.6" y="-0.8" class="st0" width="43.3" height="42"/>
<g>
	<path class="st1" d="M2.1,9.3H1.9v0.3h0.2c0.1,0,0.2-0.1,0.2-0.2C2.3,9.4,2.2,9.3,2.1,9.3z"/>
	<path class="st1" d="M28.2,3.5h4.1v0h4.1v4.1h-4.1v0h4.1v4.1v4.1v2.5l3,4.2V2.3c0-1-0.8-1.8-1.8-1.8h-14l2.2,3H28.2z M26.2,2.1
		h11.4c0.4,0,0.7,0.3,0.7,0.7v0.7c0,0.1-0.1,0.1-0.1,0.1c-0.1,0-0.1-0.1-0.1-0.1V2.8c0-0.3-0.2-0.5-0.5-0.5H26.2
		c-0.1,0-0.1-0.1-0.1-0.1C26.1,2.2,26.1,2.1,26.2,2.1z"/>
	<polygon class="st1" points="2.1,5.3 1.9,5.7 2.3,5.7 	"/>
	<path class="st1" d="M38.1,37.4c0,0.4-0.3,0.7-0.7,0.7h-0.7c-0.1,0-0.1-0.1-0.1-0.1c0-0.1,0.1-0.1,0.1-0.1h0.7
		c0.3,0,0.5-0.2,0.5-0.5v-4.7l-1.4-1.9v1.4v4.1H35l2.4,3h0.4c1,0,1.8-0.8,1.8-1.8v-2.2V35l-1.4-1.9V37.4z"/>
	<path class="st1" d="M2,17.6H1.8v0.8H2c0.3,0,0.4-0.1,0.4-0.4C2.4,17.7,2.2,17.6,2,17.6z"/>
	<polygon class="st1" points="15.9,20 15.9,20 11.8,20 11.8,15.9 11.8,15.9 11.8,20 	"/>
	<path class="st1" d="M14.1,2.1c0.1,0,0.1,0.1,0.1,0.1c0,0.1-0.1,0.1-0.1,0.1h-6L9,3.5h2.8h4.1H16l-2.3-3H9H6.6l1.3,1.6H14.1z"/>
	<path class="st1" d="M1.9,9.7v0.3h0.2c0.1,0,0.2-0.1,0.2-0.2c0-0.1-0.1-0.2-0.2-0.2H1.9z"/>
	<polygon class="st1" points="17.9,37.6 17.5,38.2 17.9,38.2 	"/>
	<path class="st1" d="M2.3,39.5H33l-2.3-3h-2.4h-4.1v-4.1h0v4.1H20h-4.1h-4.1H7.6H3.5v-4.1v-4.1v-4.1V20v-4.1v-4.1h4.1v0H3.5V7.6
		V3.5h1.8L4.4,2.4H2.7c-0.3,0-0.5,0.2-0.5,0.5v0.7c0,0.1-0.1,0.1-0.1,0.1C2,3.6,2,3.6,2,3.5V2.8c0-0.4,0.3-0.7,0.7-0.7h1.5L3,0.5
		H2.3c-1,0-1.8,0.8-1.8,1.8v33.4v2C0.5,38.7,1.3,39.5,2.3,39.5z M29.9,37.5h0.7v0.1l-0.4,0.9h-0.1l0.4-0.9h-0.5V37.5z M26,37.5
		c0.2,0,0.3,0.1,0.3,0.3h-0.1c0-0.1-0.1-0.2-0.2-0.2c-0.2,0-0.2,0.1-0.2,0.4c0-0.1,0.2-0.2,0.3-0.2c0.2,0,0.3,0.1,0.3,0.3
		c0,0.2-0.1,0.3-0.3,0.3c-0.3,0-0.4-0.2-0.4-0.5C25.7,37.7,25.8,37.5,26,37.5z M22.1,37.9c-0.1,0-0.2,0.1-0.2,0.1h-0.1v-0.6h0.6v0.1
		h-0.5v0.3c0-0.1,0.1-0.1,0.2-0.1c0.2,0,0.3,0.2,0.3,0.3c0,0.2-0.1,0.3-0.3,0.3c-0.2,0-0.3-0.1-0.3-0.3h0.1c0,0.1,0.1,0.2,0.2,0.2
		c0.2,0,0.2-0.1,0.2-0.2C22.3,38,22.2,37.9,22.1,37.9z M17.4,38.2l0.5-0.7H18v0.7h0.1v0.1H18v0.2h-0.1v-0.2L17.4,38.2L17.4,38.2z
		 M13.7,38L13.7,38l0-0.1h0c0.2,0,0.3-0.1,0.3-0.2c0-0.1-0.1-0.2-0.2-0.2c-0.1,0-0.2,0.1-0.2,0.2h-0.1c0-0.2,0.1-0.3,0.3-0.3
		c0.2,0,0.3,0.1,0.3,0.3c0,0.1-0.1,0.2-0.2,0.2v0c0.1,0,0.2,0.1,0.2,0.3c0,0.2-0.1,0.3-0.3,0.3c-0.2,0-0.3-0.1-0.3-0.3h0.1
		c0,0.1,0.1,0.2,0.2,0.2c0.1,0,0.2-0.1,0.2-0.2C13.9,38.1,13.8,38,13.7,38z M9.3,38.4c0.3-0.2,0.5-0.4,0.5-0.6c0-0.1,0-0.2-0.2-0.2
		c-0.1,0-0.2,0.1-0.2,0.2H9.3c0-0.2,0.1-0.3,0.3-0.3c0.2,0,0.3,0.1,0.3,0.3c0,0.2-0.3,0.5-0.4,0.6H10v0.1L9.3,38.4L9.3,38.4z
		 M5.4,37.5h0.3v1H5.5v-0.9H5.4V37.5z M2.3,34.4V34h0.1v1H2.3v-0.4H1.8V35H1.7v-1h0.1v0.4H2.3z M2,5.1h0.1l0.3,1H2.4L2.3,5.8H1.9
		L1.8,6.1H1.7L2,5.1z M2.4,9.9c0,0.1-0.1,0.3-0.3,0.3H1.8v-1h0.3c0.2,0,0.3,0.1,0.3,0.2c0,0.1-0.1,0.2-0.2,0.2
		C2.3,9.7,2.4,9.8,2.4,9.9z M2.1,13.3c0.2,0,0.4,0.1,0.4,0.3H2.4c-0.1-0.1-0.2-0.2-0.3-0.2c-0.2,0-0.4,0.1-0.4,0.4
		c0,0.2,0.2,0.4,0.4,0.4c0.1,0,0.2-0.1,0.3-0.2h0.2c-0.1,0.2-0.2,0.3-0.4,0.3c-0.3,0-0.5-0.2-0.5-0.5C1.6,13.5,1.8,13.3,2.1,13.3z
		 M2.3,26.2v0.1H1.9v0.4H1.8v-1h0.5v0.1H1.9v0.3H2.3z M2.3,22v0.1H1.9v0.3h0.4v0.1H1.8v-1h0.5v0.1H1.9V22H2.3z M2,18.4H1.7v-1H2
		c0.3,0,0.5,0.2,0.5,0.5C2.5,18.3,2.3,18.4,2,18.4z M2.1,29.9c0.2,0,0.4,0.1,0.4,0.3H2.4C2.3,30,2.2,30,2.1,30
		c-0.2,0-0.4,0.1-0.4,0.4c0,0.2,0.2,0.4,0.4,0.4c0.2,0,0.3-0.1,0.3-0.3H2v-0.1h0.5v0.1c0,0.2-0.2,0.4-0.5,0.4
		c-0.3,0-0.5-0.2-0.5-0.5C1.6,30.1,1.8,29.9,2.1,29.9z"/>
	<path class="st1" d="M26.1,38.4c0.1,0,0.2-0.1,0.2-0.2c0-0.1-0.1-0.2-0.2-0.2c-0.1,0-0.2,0.1-0.2,0.2
		C25.8,38.3,25.9,38.4,26.1,38.4z"/>
	<polygon class="st2" points="7.6,6.6 5.3,3.5 3.5,3.5 3.5,7.6 7.6,7.6 	"/>
	<polygon class="st3" points="11.8,3.5 9,3.5 11.8,7.1 	"/>
	<polygon class="st3" points="7.6,7.6 8.5,7.6 7.6,6.6 	"/>
	<polygon class="st2" points="12.2,7.6 15.9,7.6 15.9,3.5 11.8,3.5 11.8,7.1 	"/>
	<polygon class="st3" points="19.1,7.6 16,3.5 15.9,3.5 15.9,7.6 	"/>
	<polygon class="st3" points="28.2,3.5 25.9,3.5 28.2,6.8 	"/>
	<polygon class="st2" points="28.8,7.6 32.4,7.6 32.4,7.6 32.4,7.6 32.4,3.5 32.4,3.5 32.4,3.5 28.2,3.5 28.2,6.8 	"/>
	<polygon class="st3" points="32.4,7.6 32.4,7.6 36.5,7.6 36.5,3.5 32.4,3.5 32.4,3.5 	"/>
	<rect x="32.4" y="7.6" class="st2" width="4.1" height="4.1"/>
	<polygon class="st3" points="31.8,11.8 32.4,11.8 32.4,7.6 28.8,7.6 	"/>
	<polygon class="st3" points="20,8.9 20,11.8 22.1,11.8 	"/>
	<polygon class="st2" points="20,11.8 20,8.9 19.1,7.6 15.9,7.6 15.9,11.8 	"/>
	<polygon class="st3" points="15.9,11.8 15.9,7.6 12.2,7.6 15.5,11.8 	"/>
	<polygon class="st2" points="8.5,7.6 7.6,7.6 7.6,11.8 11.6,11.8 	"/>
	<rect x="3.5" y="7.6" class="st3" width="4.1" height="4.1"/>
	<rect x="3.5" y="11.8" class="st2" width="4.1" height="4.1"/>
	<polygon class="st3" points="7.6,15.9 11.8,15.9 11.8,15.9 11.8,15.9 11.8,11.9 11.6,11.8 7.6,11.8 7.6,11.8 7.6,15.9 	"/>
	<polygon class="st2" points="15.5,11.8 15.9,12.3 15.9,11.8 	"/>
	<polygon class="st2" points="11.8,11.9 11.8,15.9 14.8,15.9 	"/>
	<polygon class="st3" points="20,15.9 20,11.8 15.9,11.8 15.9,12.3 18.7,15.9 	"/>
	<polygon class="st2" points="24.1,15.9 24.1,14.4 22.1,11.8 20,11.8 20,15.9 	"/>
	<polygon class="st3" points="24.1,14.4 24.1,15.9 25.2,15.9 	"/>
	<polygon class="st2" points="32.4,11.8 31.8,11.8 32.4,12.6 	"/>
	<polygon class="st3" points="32.4,12.6 34.7,15.9 36.5,15.9 36.5,11.8 32.4,11.8 	"/>
	<polygon class="st2" points="36.5,18.3 36.5,15.9 34.7,15.9 	"/>
	<polygon class="st3" points="28.3,20 28.2,19.9 28.2,20 	"/>
	<polygon class="st2" points="24.1,15.9 24.1,20 28.2,20 28.2,19.9 25.2,15.9 	"/>
	<polygon class="st3" points="20,15.9 20,17.5 22,20 24.1,20 24.1,15.9 	"/>
	<polygon class="st2" points="18.7,15.9 20,17.5 20,15.9 	"/>
	<polygon class="st2" points="15.9,17.3 15.9,20 18,20 	"/>
	<polygon class="st3" points="15.9,20 15.9,17.3 14.8,15.9 11.8,15.9 11.8,20 	"/>
	<polygon class="st2" points="11.8,15.9 11.8,15.9 7.6,15.9 7.6,20 11.8,20 	"/>
	<polygon class="st3" points="7.6,15.9 7.6,15.9 3.5,15.9 3.5,20 7.6,20 	"/>
	<rect x="3.5" y="20" class="st2" width="4.1" height="4.1"/>
	<rect x="7.6" y="20" class="st3" width="4.1" height="4.1"/>
	<rect x="11.8" y="20" class="st2" width="4.1" height="4.1"/>
	<polygon class="st3" points="18,20 15.9,20 15.9,20 15.9,24.1 15.9,24.1 20,24.1 20,22.6 	"/>
	<polygon class="st2" points="20,24.1 20,24.1 20,24.1 21.2,24.1 20,22.6 	"/>
	<polygon class="st2" points="24.1,22.7 24.1,20 22,20 	"/>
	<polygon class="st3" points="28.2,20 24.1,20 24.1,22.7 25.2,24.1 28.2,24.1 	"/>
	<polygon class="st2" points="28.2,24.1 31.4,24.1 28.3,20 28.2,20 	"/>
	<polygon class="st2" points="34.5,28.2 32.4,25.4 32.4,28.2 	"/>
	<polygon class="st3" points="28.2,24.1 28.2,28 28.5,28.2 32.4,28.2 32.4,25.4 31.4,24.1 	"/>
	<polygon class="st2" points="24.1,28.2 24.3,28.2 24.1,28 	"/>
	<polygon class="st2" points="25.2,24.1 28.2,28 28.2,24.1 	"/>
	<polygon class="st3" points="21.2,24.1 20,24.1 20,28.2 24.1,28.2 24.1,28 	"/>
	<polygon class="st2" points="20,24.1 20,24.1 15.9,24.1 15.9,28.2 20,28.2 20,28.2 20,28.2 20,24.1 	"/>
	<polygon class="st3" points="11.8,24.1 11.8,28.2 15.9,28.2 15.9,24.1 15.9,24.1 	"/>
	<rect x="7.6" y="24.1" class="st2" width="4.1" height="4.1"/>
	<rect x="3.5" y="24.1" class="st3" width="4.1" height="4.1"/>
	<rect x="3.5" y="28.2" class="st2" width="4.1" height="4.1"/>
	<rect x="7.6" y="28.2" class="st3" width="4.1" height="4.1"/>
	<rect x="11.8" y="28.2" class="st2" width="4.1" height="4.1"/>
	<rect x="15.9" y="28.2" class="st3" width="4.1" height="4.1"/>
	<polygon class="st2" points="20,28.2 20,28.2 20,28.2 20,32.4 20,32.4 24.1,32.4 24.1,32.4 24.1,32.4 24.1,28.2 	"/>
	<polygon class="st3" points="24.3,28.2 24.1,28.2 24.1,32.4 27.5,32.4 	"/>
	<polygon class="st2" points="32.4,28.2 28.5,28.2 31.7,32.4 32.4,32.4 	"/>
	<polygon class="st3" points="32.4,28.2 32.4,32.4 36.5,32.4 36.5,30.9 34.5,28.2 	"/>
	<polygon class="st2" points="32.4,33.2 35,36.5 36.5,36.5 36.5,32.4 32.4,32.4 	"/>
	<polygon class="st3" points="28.2,33.3 28.2,36.5 30.7,36.5 	"/>
	<polygon class="st3" points="31.7,32.4 32.4,33.2 32.4,32.4 	"/>
	<polygon class="st2" points="28.2,33.3 27.5,32.4 24.1,32.4 24.1,36.5 28.2,36.5 	"/>
	<polygon class="st3" points="20,32.4 20,36.5 24.1,36.5 24.1,32.4 24.1,32.4 	"/>
	<polygon class="st2" points="20,32.4 20,32.4 15.9,32.4 15.9,36.5 20,36.5 	"/>
	<rect x="11.8" y="32.4" class="st3" width="4.1" height="4.1"/>
	<rect x="7.6" y="32.4" class="st2" width="4.1" height="4.1"/>
	<rect x="3.5" y="32.4" class="st3" width="4.1" height="4.1"/>
	<polygon class="st3" points="5.5,38.5 5.7,38.5 5.7,37.5 5.4,37.5 5.4,37.6 5.5,37.6 	"/>
	<path class="st3" d="M10,38.4H9.5C9.7,38.2,10,38,10,37.8c0-0.2-0.1-0.3-0.3-0.3c-0.2,0-0.3,0.1-0.3,0.3h0.1c0-0.1,0.1-0.2,0.2-0.2
		c0.1,0,0.2,0.1,0.2,0.2c0,0.2-0.2,0.4-0.5,0.6v0.1H10V38.4z"/>
	<path class="st3" d="M13.7,38.4c-0.1,0-0.2-0.1-0.2-0.2h-0.1c0,0.2,0.2,0.3,0.3,0.3c0.2,0,0.3-0.1,0.3-0.3c0-0.1-0.1-0.2-0.2-0.3v0
		c0.1,0,0.2-0.1,0.2-0.2c0-0.1-0.1-0.3-0.3-0.3c-0.2,0-0.3,0.1-0.3,0.3h0.1c0-0.1,0.1-0.2,0.2-0.2c0.1,0,0.2,0.1,0.2,0.2
		c0,0.1-0.1,0.2-0.3,0.2h0V38h0c0.2,0,0.3,0.1,0.3,0.2C13.9,38.3,13.9,38.4,13.7,38.4z"/>
	<path class="st3" d="M17.9,38.5H18v-0.2h0.1v-0.1H18v-0.7h-0.2l-0.5,0.7v0.1h0.5V38.5z M17.5,38.2l0.4-0.5v0.5H17.5z"/>
	<path class="st3" d="M22.1,38.4c-0.1,0-0.2-0.1-0.2-0.2h-0.1c0,0.2,0.1,0.3,0.3,0.3c0.2,0,0.3-0.2,0.3-0.3c0-0.2-0.1-0.3-0.3-0.3
		c-0.1,0-0.2,0-0.2,0.1v-0.3h0.5v-0.1h-0.6v0.6h0.1c0-0.1,0.1-0.1,0.2-0.1c0.1,0,0.2,0.1,0.2,0.2C22.3,38.3,22.2,38.4,22.1,38.4z"/>
	<path class="st3" d="M26.1,38.5c0.2,0,0.3-0.1,0.3-0.3c0-0.2-0.1-0.3-0.3-0.3c-0.1,0-0.2,0.1-0.3,0.2c0-0.3,0.1-0.4,0.2-0.4
		c0.1,0,0.2,0.1,0.2,0.2h0.1c0-0.1-0.1-0.3-0.3-0.3c-0.3,0-0.4,0.2-0.4,0.5C25.7,38.3,25.8,38.5,26.1,38.5z M26,37.9
		c0.1,0,0.2,0.1,0.2,0.2c0,0.1-0.1,0.2-0.2,0.2c-0.2,0-0.2-0.1-0.2-0.2C25.8,38,25.9,37.9,26,37.9z"/>
	<polygon class="st3" points="30.1,38.5 30.2,38.5 30.6,37.6 30.6,37.5 29.9,37.5 29.9,37.6 30.5,37.6 	"/>
	<path class="st3" d="M1.9,5.8h0.4l0.1,0.2h0.1l-0.3-1H2l-0.3,1h0.1L1.9,5.8z M2.1,5.3l0.2,0.5H1.9L2.1,5.3z"/>
	<path class="st3" d="M2.4,9.5c0-0.1-0.1-0.2-0.3-0.2H1.8v1h0.4c0.2,0,0.3-0.1,0.3-0.3c0-0.1-0.1-0.2-0.2-0.2
		C2.3,9.7,2.4,9.6,2.4,9.5z M2.3,9.9c0,0.1-0.1,0.2-0.2,0.2H1.9V9.7h0.2C2.2,9.7,2.3,9.8,2.3,9.9z M2.1,9.6H1.9V9.3h0.2
		c0.1,0,0.2,0.1,0.2,0.2C2.3,9.6,2.2,9.6,2.1,9.6z"/>
	<path class="st3" d="M2.1,14.3c0.2,0,0.4-0.1,0.4-0.3H2.4c-0.1,0.1-0.2,0.2-0.3,0.2c-0.2,0-0.4-0.1-0.4-0.4c0-0.2,0.2-0.4,0.4-0.4
		c0.1,0,0.2,0.1,0.3,0.2h0.2c-0.1-0.2-0.2-0.3-0.4-0.3c-0.3,0-0.5,0.2-0.5,0.5C1.6,14.1,1.8,14.3,2.1,14.3z"/>
	<path class="st3" d="M2,17.5H1.7v1H2c0.3,0,0.5-0.2,0.5-0.5C2.5,17.7,2.3,17.5,2,17.5z M2,18.3H1.8v-0.8H2c0.3,0,0.4,0.1,0.4,0.4
		C2.4,18.2,2.2,18.3,2,18.3z"/>
	<polygon class="st3" points="2.3,21.7 2.3,21.6 1.8,21.6 1.8,22.6 2.3,22.6 2.3,22.5 1.9,22.5 1.9,22.1 2.3,22.1 2.3,22 1.9,22 
		1.9,21.7 	"/>
	<polygon class="st3" points="2.4,25.8 2.4,25.7 1.8,25.7 1.8,26.7 1.9,26.7 1.9,26.3 2.3,26.3 2.3,26.2 1.9,26.2 1.9,25.8 	"/>
	<path class="st3" d="M2.1,30.8c0.3,0,0.5-0.2,0.5-0.4v-0.1H2v0.1h0.4c0,0.2-0.1,0.3-0.3,0.3c-0.2,0-0.4-0.1-0.4-0.4
		c0-0.2,0.2-0.4,0.4-0.4c0.1,0,0.2,0.1,0.3,0.2h0.2c-0.1-0.2-0.2-0.3-0.4-0.3c-0.3,0-0.5,0.2-0.5,0.5C1.6,30.6,1.8,30.8,2.1,30.8z"
		/>
	<polygon class="st3" points="1.7,34 1.7,35 1.8,35 1.8,34.5 2.3,34.5 2.3,35 2.5,35 2.5,34 2.3,34 2.3,34.4 1.8,34.4 1.8,34 	"/>
	<polygon class="st4" points="7.9,2.1 6.6,0.5 3,0.5 4.2,2.1 	"/>
	<polygon class="st4" points="9,3.5 8.1,2.4 4.4,2.4 5.3,3.5 7.6,3.5 	"/>
	<polygon class="st5" points="7.6,3.5 5.3,3.5 7.6,6.6 	"/>
	<polygon class="st6" points="7.6,6.6 8.5,7.6 11.8,7.6 11.8,7.1 9,3.5 7.6,3.5 	"/>
	<polygon class="st5" points="11.8,7.1 11.8,7.6 12.2,7.6 	"/>
	<polygon class="st6" points="15.5,11.8 12.2,7.6 11.8,7.6 11.8,11.8 	"/>
	<polygon class="st5" points="11.8,7.6 8.5,7.6 11.6,11.8 11.8,11.8 	"/>
	<polygon class="st6" points="11.6,11.8 11.8,11.9 11.8,11.8 	"/>
	<polygon class="st5" points="15.9,15.9 15.9,12.3 15.5,11.8 11.8,11.8 11.8,11.9 14.8,15.9 	"/>
	<polygon class="st6" points="15.9,12.3 15.9,15.9 18.7,15.9 	"/>
	<path class="st4" d="M34.4,38c-0.1,0-0.2,0.1-0.2,0.2c0,0.1,0.1,0.2,0.2,0.2c0.1,0,0.2-0.1,0.2-0.2C34.6,38.1,34.5,38,34.4,38z"/>
	<path class="st4" d="M32.4,36.5h-1.7l2.3,3h4.4l-2.4-3H32.4z M34.4,38.5c-0.2,0-0.4-0.1-0.4-0.3c0-0.1,0.1-0.2,0.2-0.3
		c-0.1,0-0.2-0.1-0.2-0.2c0-0.1,0.1-0.3,0.3-0.3c0.2,0,0.3,0.1,0.3,0.3c0,0.1-0.1,0.2-0.2,0.2c0.1,0,0.2,0.1,0.2,0.3
		C34.8,38.4,34.6,38.5,34.4,38.5z"/>
	<path class="st4" d="M34.4,37.9c0.1,0,0.2-0.1,0.2-0.2c0-0.1-0.1-0.2-0.2-0.2c-0.1,0-0.2,0.1-0.2,0.2
		C34.2,37.9,34.3,37.9,34.4,37.9z"/>
	<polygon class="st6" points="20,20 22,20 20,17.5 	"/>
	<polygon class="st5" points="20,20 20,17.5 18.7,15.9 15.9,15.9 15.9,17.3 18,20 	"/>
	<polygon class="st6" points="14.8,15.9 15.9,17.3 15.9,15.9 	"/>
	<polygon class="st6" points="20,22.6 20,20 18,20 	"/>
	<polygon class="st5" points="22,20 20,20 20,22.6 21.2,24.1 24.1,24.1 24.1,22.7 	"/>
	<polygon class="st6" points="24.1,24.1 25.2,24.1 24.1,22.7 	"/>
	<polygon class="st6" points="28.2,28.2 28.5,28.2 28.2,28 	"/>
	<polygon class="st5" points="28.2,28 25.2,24.1 24.1,24.1 24.1,28 24.3,28.2 28.2,28.2 	"/>
	<polygon class="st6" points="24.1,28 24.1,24.1 21.2,24.1 	"/>
	<polygon class="st6" points="24.3,28.2 27.5,32.4 28.2,32.4 28.2,28.2 	"/>
	<polygon class="st5" points="28.2,28.2 28.2,32.4 31.7,32.4 28.5,28.2 	"/>
	<polygon class="st5" points="32.4,33.2 32.4,36.5 35,36.5 	"/>
	<polygon class="st6" points="32.4,33.2 31.7,32.4 28.2,32.4 28.2,33.3 30.7,36.5 32.4,36.5 	"/>
	<polygon class="st5" points="28.2,33.3 28.2,32.4 27.5,32.4 	"/>
	<path class="st6" d="M34.6,38c0.1,0,0.2-0.1,0.2-0.2c0-0.1-0.1-0.3-0.3-0.3c-0.2,0-0.3,0.1-0.3,0.3c0,0.1,0.1,0.2,0.2,0.2
		c-0.1,0-0.2,0.1-0.2,0.3c0,0.2,0.1,0.3,0.4,0.3c0.2,0,0.4-0.1,0.4-0.3C34.8,38.1,34.7,38,34.6,38z M34.2,37.8
		c0-0.1,0.1-0.2,0.2-0.2c0.1,0,0.2,0.1,0.2,0.2c0,0.1-0.1,0.2-0.2,0.2C34.3,37.9,34.2,37.9,34.2,37.8z M34.4,38.4
		c-0.1,0-0.2-0.1-0.2-0.2c0-0.1,0.1-0.2,0.2-0.2c0.1,0,0.2,0.1,0.2,0.2C34.6,38.3,34.6,38.4,34.4,38.4z"/>
	<polygon class="st4" points="20,3.5 24.1,3.5 25.9,3.5 23.7,0.5 13.7,0.5 16,3.5 	"/>
	<path class="st4" d="M36.5,20v4.1v4.1v2.7l1.4,1.9v-6.7c0-0.1,0.1-0.1,0.1-0.1c0.1,0,0.1,0.1,0.1,0.1v7l1.4,1.9V22.6l-3-4.2V20z"/>
	<polygon class="st6" points="20,7.6 20,3.5 16,3.5 19.1,7.6 	"/>
	<rect x="20" y="3.5" class="st5" width="4.1" height="4.1"/>
	<polygon class="st6" points="28.2,7.6 28.2,6.8 25.9,3.5 24.1,3.5 24.1,7.6 	"/>
	<polygon class="st5" points="28.2,6.8 28.2,7.6 28.8,7.6 	"/>
	<polygon class="st6" points="31.8,11.8 28.8,7.6 28.2,7.6 28.2,11.8 	"/>
	<rect x="24.1" y="7.6" class="st5" width="4.1" height="4.1"/>
	<polygon class="st6" points="22.1,11.8 24.1,11.8 24.1,7.6 20,7.6 20,8.9 	"/>
	<polygon class="st5" points="20,7.6 19.1,7.6 20,8.9 	"/>
	<polygon class="st5" points="24.1,11.8 22.1,11.8 24.1,14.4 	"/>
	<polygon class="st6" points="25.2,15.9 28.2,15.9 28.2,11.8 24.1,11.8 24.1,14.4 	"/>
	<polygon class="st5" points="28.2,15.9 32.4,15.9 32.4,12.6 31.8,11.8 28.2,11.8 	"/>
	<polygon class="st6" points="34.7,15.9 32.4,12.6 32.4,15.9 	"/>
	<polygon class="st5" points="32.4,15.9 32.4,20 36.5,20 36.5,18.3 34.7,15.9 	"/>
	<polygon class="st6" points="28.2,19.9 28.3,20 32.4,20 32.4,15.9 28.2,15.9 	"/>
	<polygon class="st5" points="28.2,19.9 28.2,15.9 25.2,15.9 	"/>
	<polygon class="st5" points="31.4,24.1 32.4,24.1 32.4,20 28.3,20 	"/>
	<rect x="32.4" y="20" class="st6" width="4.1" height="4.1"/>
	<polygon class="st5" points="32.4,25.4 34.5,28.2 36.5,28.2 36.5,24.1 32.4,24.1 	"/>
	<polygon class="st6" points="32.4,25.4 32.4,24.1 31.4,24.1 	"/>
	<polygon class="st6" points="36.5,30.9 36.5,28.2 34.5,28.2 	"/>
	<path class="st7" d="M14.1,2.4c0.1,0,0.1-0.1,0.1-0.1c0-0.1-0.1-0.1-0.1-0.1H7.9H4.2H2.7C2.3,2.1,2,2.4,2,2.8v0.7
		C2,3.6,2,3.6,2.1,3.6c0.1,0,0.1-0.1,0.1-0.1V2.8c0-0.3,0.2-0.5,0.5-0.5h1.7h3.6H14.1z"/>
	<path class="st7" d="M26.2,2.4h11.4c0.3,0,0.5,0.2,0.5,0.5v0.7c0,0.1,0.1,0.1,0.1,0.1c0.1,0,0.1-0.1,0.1-0.1V2.8
		c0-0.4-0.3-0.7-0.7-0.7H26.2c-0.1,0-0.1,0.1-0.1,0.1C26.1,2.3,26.1,2.4,26.2,2.4z"/>
	<path class="st7" d="M37.9,37.4c0,0.3-0.2,0.5-0.5,0.5h-0.7c-0.1,0-0.1,0.1-0.1,0.1c0,0.1,0.1,0.1,0.1,0.1h0.7
		c0.4,0,0.7-0.3,0.7-0.7v-4.3v-7c0-0.1-0.1-0.1-0.1-0.1c-0.1,0-0.1,0.1-0.1,0.1v6.7V37.4z"/>
</g>
</svg>
