<?xml version="1.0" encoding="utf-8"?>
<!-- Generator: Adobe Illustrator 26.0.1, SVG Export Plug-In . SVG Version: 6.00 Build 0)  -->
<svg version="1.1" id="Слой_1" xmlns="http://www.w3.org/2000/svg" xmlns:xlink="http://www.w3.org/1999/xlink" x="0px" y="0px"
	 viewBox="0 0 53.7 26.9" style="enable-background:new 0 0 53.7 26.9;" xml:space="preserve">
<style type="text/css">
	.st0{fill:#3A6AB2;}
</style>
<g>
	<g>
		<path class="st0" d="M11.9,6.6H0.8V1.4h11.1V6.6z M4.3,12.5H0.8V6.6h3.5V12.5z M7.8,12.5H4.9V6.6h2.9V12.5z M11.9,12.5H8.4V6.6
			h3.5V12.5z"/>
		<path class="st0" d="M17.7,1.4v11.1h-5.3V1.4H17.7z"/>
		<path class="st0" d="M23.6,4.9v7.6h-5.3V1.4h10l1.2,1.2v10h-5.3V4.9H23.6z"/>
		<path class="st0" d="M30,12.5V1.4h5.3v11.1H30z M35.3,1.4v2.9h0.6l1.5-2.9H35.3z M35.3,12.5V9.6h5.9v2.9H35.3z M35.9,1.4v2.9
			l5.3-1.8L40,1.4H35.9z M35.9,12.5V4.3l5.3-1.8v10H35.9z"/>
		<path class="st0" d="M41.8,4.3h11.1v5.3H41.8V4.3z M50,1.4v11.1h-5.3V1.4H50z"/>
	</g>
	<g>
		<path class="st0" d="M6.7,13v12.5H0.8V13H6.7z M7.4,13v3.3H6.7V13H7.4z M7.4,17.6v3.3H6.7v-3.3H7.4z M7.4,22.2v3.3H6.7v-3.3H7.4z
			 M13.3,13v12.5H7.4V13H13.3z M13.3,18.3l-0.7,0.7l0.7,0.7V18.3z"/>
		<path class="st0" d="M19.9,13v12.5H14V13H19.9z M26.5,13v4h-6.6v-4H26.5z M26.5,17.6v3.3h-6.6v-3.3H26.5z M26.5,21.6v4h-6.6v-4
			H26.5z"/>
		<path class="st0" d="M33.1,13v12.5h-5.9V13H33.1z M33.8,13v3.3h-0.7V13H33.8z M33.8,17.6v3.3h-0.7v-3.3H33.8z M39.7,13v12.5h-5.9
			V13H39.7z"/>
		<path class="st0" d="M52.9,13v6.6H40.4V13H52.9z M49.6,13v12.5h-5.9V13H49.6z"/>
	</g>
</g>
</svg>
