<?xml version="1.0" encoding="utf-8"?>
<!-- Generator: Adobe Illustrator 26.0.1, SVG Export Plug-In . SVG Version: 6.00 Build 0)  -->
<svg version="1.1" id="Слой_1" xmlns="http://www.w3.org/2000/svg" xmlns:xlink="http://www.w3.org/1999/xlink" x="0px" y="0px"
	 viewBox="0 0 310 302" style="enable-background:new 0 0 310 302;" xml:space="preserve">
<style type="text/css">
	.st0{fill:#FFFFFF;}
</style>
<g>
	<path class="st0" d="M555.6,244c-17.5,0-35,0-52.5,0c-1.2,0-2.3,0-3.5,0c-4.6,0-8.6-1-11-5.4c-2.5-4.4-0.9-8.3,1.6-12.1
		c17.1-26.1,34-52.2,51.2-78.2c2.8-4.2,3.1-7.4,0.1-11.7c-6.8-9.9-13.2-20-19.7-30.1c-0.2-0.3-0.4-0.6-0.5-0.8
		c-4.5-7.5-1.5-13.3,7.2-13.6c5.7-0.2,11.3-0.2,17,0c4.2,0.1,8.2-0.5,12-2.6c4.1-2.2,8.4-2.3,12.5-0.2c4,2.1,8.1,2.9,12.5,2.7
		c0.3,0,0.7,0,1,0c7.8,0.6,10.9,6.2,6.8,12.9c-5.6,9.1-11.4,18-17.1,27c-7.5,11.9-7.4,8.9,0,20.5c15.4,24,30.9,47.9,46.3,71.8
		c1.1,1.7,2.2,3.4,3,5.2c3,6.3-0.1,12.7-7,14.1c-2.1,0.4-4.3,0.4-6.5,0.4C591.2,244,573.4,243.9,555.6,244
		C555.6,244,555.6,244,555.6,244z M555.6,239.8C555.6,239.8,555.6,239.8,555.6,239.8c16.8,0,33.6,0,50.5,0c2.5,0,5,0.1,7.5-0.3
		c5.1-0.7,7-4.4,4.7-9.1c-1.2-2.4-2.7-4.6-4.1-6.8c-16-24.8-31.9-49.6-48.1-74.2c-3.5-5.2-3.4-9.4,0.1-14.5
		c6.9-10.2,13.3-20.7,19.9-31.2c3.2-5.1,1.9-7.4-4.1-7.4c-4.8,0-9.1-1-13.5-2.9c-2.5-1.1-6.2-1.2-8.5-0.1
		c-5.4,2.5-10.8,3.1-16.5,2.9c-4.5-0.1-9-0.2-13.5,0.1c-2,0.1-4.8,0.9-5.5,2.2c-0.7,1.4,0.3,4.1,1.4,5.8
		c6.6,10.6,13.3,21.2,20.4,31.4c3.3,4.7,3,8.5-0.1,13.1c-17,25.7-33.8,51.5-50.7,77.3c-1.9,3-5.1,5.9-3,9.9
		c2.2,4.1,6.4,3.6,10.2,3.6C520.3,239.8,537.9,239.8,555.6,239.8z"/>
	<path class="st0" d="M606.9,267.2c-2.2,2.9-3.6,4.8-5.6,7.4c-1.9-2.6-3.4-4.6-5.1-7c-2.2,5,1.2,10.9-3.5,16c-0.8-2-1.5-3.1-1.5-4.2
		c-0.1-6.5-0.2-13,0-19.5c0-1.2,1.2-2.4,1.9-3.6c1.2,0.7,2.7,1.1,3.5,2.2c1.6,2.1,2.7,4.5,4.7,7.9c1.8-2.9,3-5.1,4.6-7.1
		c1-1.3,2.7-2,4.1-3c0.7,1.5,2,3,2.1,4.6c0.3,5.8,0.3,11.6,0,17.5c-0.1,1.5-1.4,4.2-2.2,4.2c-2.8,0-2.4-2.6-2.5-4.5
		c-0.1-2.2,0-4.3-0.1-6.5C607.2,270.4,607.1,269.3,606.9,267.2z"/>
	<path class="st0" d="M543.7,83.3c-8.3-0.2-14.8-7-14.6-15.1c0.3-8.4,6.9-14.5,15.4-14.3c8.2,0.3,14.6,6.9,14.3,14.8
		C558.7,77.1,552.1,83.4,543.7,83.3z M554.3,68.2c-0.1-6-4.5-10.2-10.6-10.1c-5.8,0.2-10.2,4.9-10.2,10.7c0.1,5.7,4.8,10.1,10.7,10
		C550.3,78.8,554.4,74.4,554.3,68.2z"/>
	<path class="st0" d="M541.5,269.1c0-3-0.2-6,0.1-9c0.2-1.4,1.4-3.8,2.3-3.8c3.9-0.2,8.1-0.4,11.7,0.8c3.9,1.2,5.1,7.7,1.9,11.1
		c-2.9,3.1-2.1,5.3-0.6,8.4c0.9,1.8,3.6,4.4,0.5,5.9c-2.5,1.2-3.2-2.1-4.3-3.8c-0.8-1.2-1.3-2.8-2.2-3.9c-0.8-0.9-2-1.4-3-2.1
		c-0.5,1.1-1.3,2.2-1.6,3.4c-0.3,1.3,0,2.7-0.3,3.9c-0.3,1-1.2,1.7-1.9,2.6c-0.8-0.8-2.3-1.6-2.4-2.5c-0.3-3.6-0.1-7.3-0.1-11
		C541.6,269.1,541.6,269.1,541.5,269.1z M546.4,264.3c-0.1,2.2,0.9,3.6,3.5,3.5c2.4-0.1,4.2-1.1,4.3-3.7c0.1-2.7-1.4-3.9-4-4
		C547.5,260,546.3,261.5,546.4,264.3z"/>
	<path class="st0" d="M583.1,267.5c0,2.8,0.3,5.7-0.1,8.5c-0.6,5.1-3.7,7.5-8.9,7.4c-5-0.1-7.9-2.2-8.3-7.4
		c-0.5-5.4-0.3-10.9-0.2-16.4c0-1.1,1.5-2.1,2.3-3.2c0.7,1.1,2,2.2,2.1,3.4c0.3,3.5,0.2,7,0.2,10.5c0,1.5,0,3,0.1,4.5
		c0.1,2.7,1.3,4.6,4.2,4.5c2.7-0.1,3.7-2,3.8-4.4c0.1-4,0.1-8,0.2-12c0-1.5,0-3,0.4-4.4c0.2-0.8,1.2-1.4,1.8-2
		c0.8,0.7,2.1,1.4,2.2,2.2C583.1,261.5,583,264.5,583.1,267.5C583,267.5,583,267.5,583.1,267.5z"/>
	<path class="st0" d="M562.7,24.6c-0.1,6.6-4.8,11.4-11.3,11.5c-6.6,0-11.8-5.1-11.7-11.7c0.1-6.1,5.5-11.4,11.6-11.4
		C557.6,13.1,562.8,18.4,562.7,24.6z M551.3,31.8c4,0,6.9-2.9,6.9-7c0-4-2.8-7.1-6.8-7.2c-4.1-0.1-7.2,3.1-7.1,7.3
		C544.4,29.1,547.2,31.8,551.3,31.8z"/>
	<path class="st0" d="M510.7,259.9c-1.7-0.1-3.5-0.6-5.1-0.3c-1.6,0.3-3.1,1.3-4.7,2.1c0.9,1.4,1.6,3.1,2.8,4.1
		c1.6,1.3,3.9,1.9,5.6,3.2c2.8,2.1,3.5,5.2,2.7,8.5c-0.7,3.3-3,5.2-6.2,5.8c-3.4,0.6-6.7,0.3-9.2-2.4c-0.5-0.6-0.8-2-0.5-2.6
		c0.3-0.5,1.7-0.7,2.5-0.6c1.4,0.3,2.9,1.4,4.2,1.2c1.6-0.2,3.9-1.1,4.4-2.3c0.4-1-0.8-3.4-1.9-4.4c-1.6-1.4-3.8-2-5.7-3.1
		c-2.9-1.7-3.9-4.4-3.4-7.7c0.6-3.5,3.1-5.1,6.2-5.6c3.2-0.6,6.6-0.9,8.6,2.5C510.9,258.8,510.8,259.3,510.7,259.9z"/>
	<path class="st0" d="M534.8,258.6c-2,0.3-3.9,0.7-5.9,0.9c-2.3,0.2-4.8-0.1-5.3,3.2c-0.4,3.3,0.9,5,4.3,5.4
		c0.7,0.1,1.3,0.8,2.8,1.7c-1.9,0.7-3,1.3-4.2,1.6c-2.6,0.5-3,2.3-2.8,4.5c0.2,2.3,1.6,3.1,3.7,3.2c2,0.1,4,0.1,6,0.4
		c0.7,0.1,1.3,1.2,2,1.9c-0.7,0.6-1.3,1.7-2.1,1.7c-3.6,0.2-7.3,0.2-11,0.1c-2.3-0.1-3-1.8-3-3.8c0-6.5-0.1-13,0.1-19.5
		c0-1.2,1.1-3.3,2-3.5c4.5-0.9,9-0.9,13.4,0.1C534.7,257.2,534.8,257.9,534.8,258.6z"/>
	<path class="st0" d="M576.9,46.5c0,4.9-4.2,8.8-9.1,8.6c-4.7-0.2-8.5-4.1-8.5-8.7c0.1-4.9,4.1-8.7,9.1-8.6
		C573.1,37.9,576.9,41.8,576.9,46.5z M572.1,46.7c-0.1-2.5-1.2-4.1-3.8-4.4c-2.5-0.3-4.6,1.6-4.5,4.1c0.1,2.5,1.6,4,4,4.1
		C570.4,50.7,571.8,49.2,572.1,46.7z"/>
	<path d="M555.6,239.8c-17.7,0-35.3,0-53,0c-3.8,0-8,0.5-10.2-3.6c-2.1-4,1-6.9,3-9.9c16.8-25.8,33.6-51.7,50.7-77.3
		c3.1-4.7,3.3-8.4,0.1-13.1c-7.1-10.3-13.7-20.9-20.4-31.4c-1-1.7-2.1-4.4-1.4-5.8c0.7-1.4,3.5-2.1,5.5-2.2c4.5-0.3,9-0.2,13.5-0.1
		c5.7,0.2,11.1-0.4,16.5-2.9c2.4-1.1,6.1-1,8.5,0.1c4.4,1.9,8.7,2.9,13.5,2.9c6,0,7.3,2.3,4.1,7.4c-6.5,10.5-12.9,21-19.9,31.2
		c-3.5,5.1-3.6,9.3-0.1,14.5c16.2,24.6,32.1,49.4,48.1,74.2c1.4,2.2,2.9,4.5,4.1,6.8c2.3,4.7,0.4,8.4-4.7,9.1
		c-2.5,0.3-5,0.3-7.5,0.3C589.2,239.8,572.4,239.8,555.6,239.8C555.6,239.8,555.6,239.8,555.6,239.8z M522.5,234.9
		c-1-3.9-2.4-7.2-2.8-10.5c-1-8.6,3.6-16.8,11.1-20.7c7.6-4,16.9-2.9,23.4,2.6c6.5,5.6,8.8,14.3,6.1,22.8c-0.6,1.8-1.1,3.7-1.8,6
		c2,0.4,3.5,0.9,4.9,0.9c15.3,0.1,30.7,0.2,46,0c6.1-0.1,7.2-2.4,3.9-7.5c-8.5-13.2-16.9-26.4-25.4-39.5c-2.9-4.5-3.2-4.5-6.7-0.5
		c-3.9,4.4-8.5,5.6-13.5,3.5c-4.2-1.8-7.1-6.3-7-10.7c0.2-5.1,3.6-9.2,9-10.8c5-1.4,5.1-1.7,2.3-6.2c-3.4-5.5-6.9-11-10.5-16.4
		c-2.6-3.8-2.6-7.2,0-11c5.1-7.6,10-15.3,15-23.1c1.8-2.8,3.6-5.6,5.3-8.5c1.1-1.9,1.4-3.8-0.7-5.3c-3.2-2.2-7.4-0.4-8.2,3.4
		c-1.3,5.9-5.4,9-10.6,8.1c-4-0.7-6.6-3.4-7.5-8.2c-0.4-2.2-0.9-4-3.5-4c-6.5,0-13,0-19.5,0.2c-2.7,0.1-3.8,2-2.7,4.6
		c0.7,1.7,1.8,3.2,2.7,4.7c5.8,9,11.4,18,17.4,26.8c3,4.4,3.5,8.2,0.4,12.8c-1.3,2-1.9,5.2-1.4,7.5c3,13-6.7,26.5-18.6,28.9
		c-2.2,0.4-4.7,2.1-5.9,4c-8.8,13.2-17.3,26.5-25.8,39.9c-3,4.8-1.7,7,4.1,7.1c5.2,0.2,10.3,0.1,15.5-0.1
		C519.1,235.9,520.6,235.3,522.5,234.9z"/>
	<path d="M554.3,68.2c0.1,6.1-4,10.6-10,10.7c-6,0.1-10.7-4.3-10.7-10c-0.1-5.8,4.4-10.5,10.2-10.7C549.8,58,554.2,62.2,554.3,68.2z
		"/>
	<path d="M546.4,264.3c-0.1-2.8,1-4.3,3.8-4.2c2.5,0.1,4.1,1.3,4,4c-0.1,2.7-1.8,3.7-4.3,3.7C547.3,267.9,546.3,266.5,546.4,264.3z"
		/>
	<path d="M551.3,31.8c-4.1,0-6.9-2.7-7-6.8c-0.1-4.2,3-7.4,7.1-7.3c3.9,0.1,6.8,3.2,6.8,7.2C558.2,28.9,555.4,31.8,551.3,31.8z"/>
	<path d="M572.1,46.7c-0.3,2.5-1.7,3.9-4.2,3.8c-2.5-0.1-3.9-1.6-4-4.1c-0.1-2.5,2-4.4,4.5-4.1C570.9,42.6,572,44.2,572.1,46.7z"/>
	<path class="st0" d="M522.5,234.9c-1.9,0.4-3.4,0.9-5,1c-5.2,0.1-10.3,0.2-15.5,0.1c-5.8-0.2-7.1-2.4-4.1-7.1
		c8.5-13.4,17-26.7,25.8-39.9c1.2-1.9,3.7-3.6,5.9-4c11.9-2.3,21.6-15.9,18.6-28.9c-0.5-2.3,0.1-5.5,1.4-7.5
		c3.1-4.6,2.6-8.4-0.4-12.8c-6-8.8-11.7-17.9-17.4-26.8c-1-1.5-2.1-3.1-2.7-4.7c-1-2.6,0-4.5,2.7-4.6c6.5-0.3,13-0.2,19.5-0.2
		c2.6,0,3.1,1.8,3.5,4c0.9,4.9,3.6,7.6,7.5,8.2c5.3,0.9,9.4-2.3,10.6-8.1c0.8-3.8,4.9-5.6,8.2-3.4c2.1,1.4,1.8,3.4,0.7,5.3
		c-1.7,2.8-3.5,5.7-5.3,8.5c-5,7.7-9.8,15.5-15,23.1c-2.6,3.8-2.6,7.2,0,11c3.7,5.4,7.1,10.9,10.5,16.4c2.8,4.5,2.6,4.8-2.3,6.2
		c-5.3,1.5-8.8,5.7-9,10.8c-0.2,4.4,2.8,8.9,7,10.7c4.9,2.1,9.6,0.9,13.5-3.5c3.5-3.9,3.8-3.9,6.7,0.5c8.5,13.2,17,26.3,25.4,39.5
		c3.3,5.1,2.2,7.4-3.9,7.5c-15.3,0.2-30.7,0.1-46,0c-1.4,0-2.8-0.5-4.9-0.9c0.7-2.3,1.2-4.2,1.8-6c2.7-8.4,0.4-17.2-6.1-22.8
		c-6.5-5.6-15.8-6.6-23.4-2.6c-7.5,3.9-12.1,12.1-11.1,20.7C520.1,227.8,521.4,231.1,522.5,234.9z M584.6,213.3c-3.5,0-5.9,2.5-6,6
		c-0.1,3.5,2.8,6.4,6.3,6.4c3.2,0,6-2.8,6-6.1C591,215.9,588.3,213.3,584.6,213.3z M551.3,117.5c-0.7,1.1-2.3,2.4-2.5,3.8
		c-0.3,2.3,1.4,3.7,3.7,3.7c2.1,0,3.4-1.3,3.4-3.5C555.9,119.1,554.5,118,551.3,117.5z"/>
	<path d="M584.6,213.3c3.7,0,6.4,2.6,6.3,6.2c-0.1,3.3-2.8,6.1-6,6.1c-3.5,0-6.3-2.9-6.3-6.4C578.6,215.8,581.1,213.4,584.6,213.3z"
		/>
	<path d="M551.3,117.5c3.1,0.5,4.6,1.6,4.6,4c0,2.2-1.2,3.5-3.4,3.5c-2.4,0-4-1.4-3.7-3.7C549.1,119.9,550.6,118.6,551.3,117.5z"/>
</g>
<g>
	<defs>
		<circle id="SVGID_1_" cx="160.2" cy="153.9" r="153.9"/>
	</defs>
	<clipPath id="SVGID_00000034047962031728337570000002080769367859027353_">
		<use xlink:href="#SVGID_1_"  style="overflow:visible;"/>
	</clipPath>
	<g style="clip-path:url(#SVGID_00000034047962031728337570000002080769367859027353_);">
		<image style="overflow:visible;" width="500" height="500" xlink:href="serum.jpg"  transform="matrix(1 0 0 1 -84.9084 -88)">
		</image>
	</g>
</g>
</svg>
